<svg width="181" height="150" viewBox="0 0 181 150" fill="none" xmlns="http://www.w3.org/2000/svg">
<path d="M165.657 148.34C172.702 141.105 181.237 130.956 179.902 120.138C178.294 107.074 162.014 101.958 151.127 101.287C143.899 100.841 136.674 102.269 129.951 105.359C127.417 106.524 131.554 108.618 132.454 108.742C140.801 109.978 149.336 108.954 157.288 105.472C165.24 101.991 173.692 95.8454 176.33 87.2205C178.446 80.311 175.228 73.5885 170.447 69.1651C164.775 63.9058 157.099 61.8047 149.421 62.2735C139.57 62.8689 130.383 67.636 121.633 72.3191L127.955 74.9895C138.495 62.1807 135.495 43.0924 124.47 32.7701C111.53 20.6691 91.2978 20.025 75.2744 27.2686C66.3502 31.3084 58.4607 37.7298 51.8186 45.1034C50.3563 46.7354 54.0769 47.9871 54.8238 48.1551C63.5109 50.1951 72.0867 44.41 75.426 35.9703C78.3988 28.506 77.3072 19.7605 73.4068 13.2002C68.6711 5.23302 59.4225 1.38267 50.5875 0.525132C41.027 -0.390349 31.1504 2.40408 22.9747 8.02729C13.215 14.7246 5.87103 24.5225 0.199993 34.9437C-1.20018 37.5228 5.47335 39.2104 6.72063 37.1339C15.3829 22.5848 27.58 6.90468 44.9501 4.66685C51.9764 3.75836 59.4004 5.3766 64.2909 10.6903C68.6925 15.4647 70.4958 22.6475 69.5466 29.2937C69.0253 32.9227 67.7104 36.4403 65.388 39.323C63.0656 42.2057 59.2428 45.1875 55.6462 44.3355L58.6514 47.3872C68.708 36.2135 82.6656 26.4997 97.6464 26.514C112.627 26.5282 124.73 35.8465 126.904 50.9023C127.997 58.4932 126.147 66.5891 121.176 72.6724C120.225 73.8388 122.013 74.957 122.811 75.2896C124.217 75.8813 126.056 76.1282 127.513 75.3503C137.983 69.7393 152.731 61.3705 163.32 69.6654C167.446 72.89 170.434 78.1247 169.561 83.7724C168.375 91.4377 161.29 97.2189 154.99 100.676C148.328 104.334 140.593 106.03 133.268 104.978L135.771 108.361C141.809 105.552 148.601 104.468 154.994 105.5C161.386 106.531 168.593 109.358 171.553 115.415C176.849 126.308 166.192 138.741 159.022 146.114C157.22 147.977 163.84 150.196 165.657 148.34Z" fill="#FEA7DC"/>
</svg>
