<svg  viewBox="0 0 28 28" fill="none" xmlns="http://www.w3.org/2000/svg">
<path d="M24.0027 11.5538C24.0031 11.2823 23.9316 11.0155 23.7955 10.7806C23.6593 10.5457 23.4634 10.351 23.2277 10.2163L14.8027 5.21631C14.5599 5.07465 14.2838 5 14.0027 5C13.7215 5 13.4455 5.07465 13.2027 5.21631L4.76517 10.2163C4.53201 10.3547 4.33886 10.5513 4.2047 10.7869C4.07054 11.0225 4 11.2889 4 11.5601C4 11.8312 4.07054 12.0976 4.2047 12.3332C4.33886 12.5688 4.53201 12.7655 4.76517 12.9038L7.16517 14.3038V17.8163C7.16661 18.0908 7.23866 18.3604 7.37439 18.599C7.51011 18.8376 7.70495 19.0373 7.94017 19.1788L13.2527 22.2413C13.4899 22.3726 13.7565 22.4415 14.0277 22.4415C14.2988 22.4415 14.5655 22.3726 14.8027 22.2413L20.1152 19.1788C20.3504 19.0373 20.5452 18.8376 20.6809 18.599C20.8167 18.3604 20.8887 18.0908 20.8902 17.8163V14.2663L22.4402 13.3538V16.7538H24.0027V11.5538ZM19.3402 17.8038L14.0027 20.8788L8.72767 17.8163V15.2288L13.2027 17.8913C13.4463 18.0305 13.7221 18.1038 14.0027 18.1038C14.2833 18.1038 14.559 18.0305 14.8027 17.8913L19.3277 15.1913L19.3402 17.8038ZM14.0027 16.5413L5.56517 11.5413L14.0027 6.52881L22.4402 11.5288L14.0027 16.5413Z" fill="#FF6613"/>
<circle cx="14" cy="14" r="13.25" stroke="#FF6613" stroke-width="1.5"/>
</svg>
