<svg viewBox="0 0 28 28" fill="none" xmlns="http://www.w3.org/2000/svg">
<path d="M7.66667 21.8333C7.20833 21.8333 6.81583 21.67 6.48917 21.3433C6.1625 21.0167 5.99945 20.6244 6 20.1667V11C6 10.5417 6.16333 10.1492 6.49 9.8225C6.81667 9.49583 7.20889 9.33278 7.66667 9.33333H11V7.66667C11 7.20833 11.1633 6.81583 11.49 6.48917C11.8167 6.1625 12.2089 5.99945 12.6667 6H16C16.4583 6 16.8508 6.16333 17.1775 6.49C17.5042 6.81667 17.6672 7.20889 17.6667 7.66667V9.33333H21C21.4583 9.33333 21.8508 9.49667 22.1775 9.82333C22.5042 10.15 22.6672 10.5422 22.6667 11V20.1667C22.6667 20.625 22.5033 21.0175 22.1767 21.3442C21.85 21.6708 21.4578 21.8339 21 21.8333H7.66667ZM7.66667 20.1667H21V11H7.66667V20.1667ZM12.6667 9.33333H16V7.66667H12.6667V9.33333Z" fill="#FF6613"/>
<circle cx="14" cy="14" r="13.25" stroke="#FF6613" stroke-width="1.5"/>
</svg>
