<svg width="317" height="184" viewBox="0 0 317 184" fill="none" xmlns="http://www.w3.org/2000/svg">
<path fill-rule="evenodd" clip-rule="evenodd" d="M228.562 175.047C256.865 175.713 285.788 174.381 312.85 183.825C314.463 184.382 316.237 183.57 316.82 181.996C317.391 180.423 316.56 178.691 314.947 178.122C287.252 168.461 257.671 169.671 228.711 168.993C226.999 168.945 225.572 170.277 225.535 171.948C225.485 173.618 226.85 174.999 228.562 175.047Z" fill="#FEA7DC"/>
<path fill-rule="evenodd" clip-rule="evenodd" d="M226.018 134.952C234.84 127.032 244.469 121.098 256.108 118.157C257.77 117.738 258.763 116.086 258.341 114.468C257.907 112.851 256.207 111.878 254.557 112.297C241.901 115.494 231.416 121.888 221.824 130.495C220.559 131.626 220.472 133.543 221.638 134.773C222.792 136.002 224.765 136.083 226.018 134.952Z" fill="#FEA7DC"/>
<path fill-rule="evenodd" clip-rule="evenodd" d="M201.476 48.4796C205.521 34.95 213.487 24.366 225.697 16.7228C227.136 15.8209 227.558 13.9467 226.627 12.5411C225.709 11.1355 223.786 10.7262 222.347 11.6282C208.834 20.091 200 31.8034 195.52 46.7834C195.036 48.3864 195.992 50.0693 197.63 50.5366C199.28 51.0052 201.005 50.0826 201.476 48.4796Z" fill="#FEA7DC"/>
<path fill-rule="evenodd" clip-rule="evenodd" d="M62.071 30.1182C59.6639 32.8822 57.5048 35.8606 55.6684 39.0314C54.8495 40.4431 53.4102 43.4432 53.1868 46.0159C52.9387 48.757 53.894 51.0695 56.3508 52.2874C59.6141 53.9025 62.2199 53.7342 64.23 52.7572C66.1657 51.8189 67.6794 49.975 68.6348 47.5027C70.4588 42.7773 70.1858 35.5555 69.2303 31.4343C71.7988 28.8482 74.6154 26.503 77.6306 24.4182C100.089 8.89089 133.033 14.6163 158.382 37.8328C167.254 45.9615 171.522 63.0324 173.743 81.4508C177.205 110.129 175.232 142.159 174.959 151.543C174.897 153.861 175.121 155.236 175.245 155.511C175.828 156.862 176.858 157.213 177.577 157.346C178.62 157.528 179.451 157.334 180.121 156.995C181.027 156.53 181.771 155.712 182.119 154.449C182.305 153.752 182.354 152.781 182.33 151.746C182.305 151.028 182.156 150.243 182.305 149.729C183.273 146.433 184.439 143.215 185.58 139.974C189.39 129.079 194.316 118.869 199.788 108.671C217.171 76.2679 233.984 42.0303 262.485 17.3428C263.763 16.235 263.888 14.3197 262.746 13.0703C261.617 11.8208 259.656 11.707 258.366 12.816C229.294 37.9914 212.022 72.8185 194.291 105.864C189.638 114.538 185.369 123.225 181.821 132.311C182.181 116.238 182.044 93.9889 179.029 74.3029C176.349 56.7949 171.249 41.322 162.626 33.4198C134.856 7.98649 98.6374 2.46933 74.0447 19.4797C71.4142 21.3006 68.9079 23.3032 66.5751 25.4752C53.708 2.80473 26.1621 -6.28167 1.81757 4.5614C0.254161 5.25514 -0.428268 7.05184 0.278989 8.57127C0.998655 10.0907 2.83498 10.7615 4.39839 10.0677C26.3358 0.297344 51.214 9.01681 62.071 30.1182ZM63.8701 37.7081C62.8651 39.0931 61.9345 40.5291 61.0659 42.0134C60.6068 42.81 59.8127 44.3416 59.4776 45.8404C59.4032 46.1915 59.3909 46.7412 59.3909 46.9954C60.247 47.4071 60.9169 47.6056 61.4629 47.3381C62.1453 47.0088 62.4929 46.2339 62.8279 45.3682C63.6716 43.1962 63.9446 40.3171 63.8701 37.7081Z" fill="#FEA7DC"/>
</svg>
