<svg width="381" height="402" viewBox="0 0 381 402" fill="none" xmlns="http://www.w3.org/2000/svg">
<path fill-rule="evenodd" clip-rule="evenodd" d="M156.49 155.585C142.305 158.247 129.28 165.342 119.334 175.913C108.207 187.739 101.664 203.141 100.879 219.353C97.6496 251.617 109.76 289.204 144.153 297.915C159.829 301.003 176.048 299.816 191.106 294.48C206.165 289.143 219.507 279.854 229.731 267.587C240.034 255.942 246.749 241.57 249.07 226.202C251.39 210.833 249.216 195.123 242.81 180.959C235.405 165.322 222.176 153.195 205.946 147.168C189.716 141.14 171.771 141.688 155.94 148.695C152.64 150.287 153.991 154.202 156.49 155.585ZM163.552 154.234C175.061 150.168 187.596 149.815 199.368 153.282C212.371 157.111 223.625 165.361 231.185 176.603C238.518 188.315 242.272 201.91 241.986 215.722C241.699 229.534 237.384 242.962 229.57 254.359C221.976 265.479 211.86 274.649 200.048 281.125C188.235 287.6 175.058 291.197 161.591 291.624C154.441 291.914 147.315 290.618 140.727 287.828C134.138 285.039 128.249 280.826 123.485 275.492C113.867 263.314 108.634 248.255 108.629 232.742C107.176 200.479 125.583 164.021 161.591 161.923C165.991 161.923 166.644 155.842 163.552 154.234Z" fill="#FEA7DC"/>
<path fill-rule="evenodd" clip-rule="evenodd" d="M54.7866 173.351C38.4479 182.372 21.0665 189.37 3.02748 194.188C2.24754 194.389 1.54608 194.819 1.01256 195.422C0.47904 196.024 0.13811 196.773 0.0339256 197.571C-0.070259 198.369 0.0667774 199.18 0.427646 199.899C0.788514 200.619 1.3565 201.214 2.0587 201.608L2.62233 201.937C23.7954 214.275 47.5313 228.107 58.7347 250.972C73.5899 281.139 55.99 313.08 40.8118 339.052C38.8742 342.44 42.9109 346.957 46.3017 344.698C57.4059 337.473 70.1485 333.15 83.3602 332.126C96.5719 331.102 109.83 333.41 121.916 338.838C134.003 344.265 144.531 352.638 152.536 363.189C160.54 373.74 165.763 386.131 167.727 399.224C167.727 402.45 172.409 402.612 174.347 400.998C182.861 392.903 189.002 382.64 192.109 371.316C192.65 369.731 193.185 368.086 193.731 366.407C197.741 354.071 202.35 339.892 214.714 334.212C230.267 327.405 245.548 339.467 257.441 348.855C258.513 349.701 259.557 350.526 260.572 351.312C269.679 359.355 280.872 364.667 292.866 366.638C296.257 366.638 297.387 363.089 296.256 360.669C282.047 328.405 263.963 281.784 295.449 253.714C307.978 242.696 324.171 238.902 340.419 235.096C353.906 231.936 367.431 228.768 378.929 221.451C379.466 221.152 379.927 220.734 380.278 220.23C380.629 219.726 380.86 219.148 380.953 218.541C381.047 217.935 381 217.315 380.817 216.728C380.634 216.142 380.32 215.606 379.898 215.159C367.65 202.922 352.259 197.326 336.646 191.649C326.737 188.046 316.739 184.41 307.398 179.024C299.834 174.678 293.626 168.321 289.464 160.659C285.302 152.998 283.349 144.333 283.823 135.629C285.965 115.223 293.121 95.6612 304.653 78.6835C305.023 78.0761 305.226 77.3817 305.241 76.6708C305.256 75.9598 305.083 75.2576 304.738 74.6352C304.394 74.0128 303.891 73.4924 303.281 73.1268C302.67 72.7612 301.974 72.5633 301.262 72.5533C285.886 74.6712 271.043 79.6506 257.504 87.2333C240.549 95.138 219.397 103.365 203.25 89.3304C188.393 77.2112 184.378 58.5264 180.363 39.84C177.484 26.4397 174.605 13.0385 167.727 2.05701C167.332 1.35546 166.736 0.787886 166.016 0.427355C165.296 0.0668232 164.484 -0.0702083 163.686 0.0338789C162.887 0.137966 162.138 0.478455 161.534 1.01148C160.931 1.5445 160.501 2.24567 160.299 3.02488L144.152 55.9375C141.007 72.0796 134.456 87.3675 124.937 100.784C107.177 119.893 81.6301 109.489 58.3148 99.9939C48.5623 96.0223 39.2003 92.2097 30.9619 90.7824C27.7325 90.7824 24.18 93.5247 26.2791 96.7511C33.2223 107.398 39.8426 118.368 45.9785 129.015C46.4139 129.815 47.0353 130.894 47.7804 132.186C53.7837 142.603 67.8114 166.942 57.2043 172.046C57.057 172.1 56.9097 172.165 56.7626 172.242C56.6169 172.301 56.4669 172.357 56.3128 172.41C55.6933 172.637 55.1875 172.961 54.7866 173.351ZM63.5786 148.051C68.2554 158.125 72.0064 172.165 61.541 178.566C61.27 178.859 60.9292 179.123 60.5111 179.346C45.8232 187.613 30.3243 194.333 14.2654 199.402C35.5913 211.99 57.2756 227.185 67.2926 250.488C79.2057 278.029 68.1828 306.163 54.6142 331.122C63.5101 327.227 73.0268 324.834 82.7758 324.074C97.2087 322.949 111.695 325.438 124.922 331.316C138.149 337.195 149.699 346.277 158.527 357.74C165.839 367.235 171.092 378.116 173.985 389.687C179.809 382.245 182.996 372.801 186.176 363.377C191.209 348.464 196.226 333.599 211.646 326.792C230.579 318.659 245.46 330.097 260.389 341.572C268.871 348.091 277.368 354.622 286.633 357.583C272.819 325.362 260.033 285.679 283.501 255.811C296.624 238.777 316.566 233.721 336.552 228.655C348.443 225.64 360.35 222.622 370.845 217.073C359.916 207.889 346.418 203.112 332.901 198.328C317.874 193.009 302.823 187.682 291.251 176.281C263.77 149.422 278.838 110.97 294.033 81.6053C284.244 83.6027 274.316 88.0964 264.347 92.6081C242.64 102.432 220.745 112.342 199.698 96.7511C182.642 84.019 178.266 64.2428 173.883 44.4343C171.581 34.0296 169.277 23.6161 165.132 14.2098C160.489 28.8744 155.785 43.4876 151.066 58.1441C149.677 62.4587 148.287 66.777 146.897 71.1015C143.757 85.9133 136.348 99.4837 125.583 110.141C104.852 126.822 80.6204 117.241 57.4771 108.09C50.8248 105.46 44.2624 102.865 37.8989 100.94C47.3337 116.149 55.9072 131.877 63.5786 148.051Z" fill="#FEA7DC"/>
<path fill-rule="evenodd" clip-rule="evenodd" d="M156.49 155.585C142.305 158.247 129.28 165.342 119.334 175.913C108.207 187.739 101.664 203.141 100.879 219.353C97.6496 251.617 109.76 289.204 144.153 297.915C159.829 301.003 176.048 299.816 191.106 294.48C206.165 289.143 219.507 279.854 229.731 267.587C240.034 255.942 246.749 241.57 249.07 226.202C251.39 210.833 249.216 195.123 242.81 180.959C235.405 165.322 222.176 153.195 205.946 147.168C189.716 141.14 171.771 141.688 155.94 148.695C152.64 150.287 153.991 154.202 156.49 155.585ZM163.552 154.234C175.061 150.168 187.596 149.815 199.368 153.282C212.371 157.111 223.625 165.361 231.185 176.603C238.518 188.315 242.272 201.91 241.986 215.722C241.699 229.534 237.384 242.962 229.57 254.359C221.976 265.479 211.86 274.649 200.048 281.125C188.235 287.6 175.058 291.197 161.591 291.624C154.441 291.914 147.315 290.618 140.727 287.828C134.138 285.039 128.249 280.826 123.485 275.492C113.867 263.314 108.634 248.255 108.629 232.742C107.176 200.479 125.583 164.021 161.591 161.923C165.991 161.923 166.644 155.842 163.552 154.234Z" stroke="#FEA7DC"/>
<path fill-rule="evenodd" clip-rule="evenodd" d="M54.7866 173.351C38.4479 182.372 21.0665 189.37 3.02748 194.188C2.24754 194.389 1.54608 194.819 1.01256 195.422C0.47904 196.024 0.13811 196.773 0.0339256 197.571C-0.070259 198.369 0.0667774 199.18 0.427646 199.899C0.788514 200.619 1.3565 201.214 2.0587 201.608L2.62233 201.937C23.7954 214.275 47.5313 228.107 58.7347 250.972C73.5899 281.139 55.99 313.08 40.8118 339.052C38.8742 342.44 42.9109 346.957 46.3017 344.698C57.4059 337.473 70.1485 333.15 83.3602 332.126C96.5719 331.102 109.83 333.41 121.916 338.838C134.003 344.265 144.531 352.638 152.536 363.189C160.54 373.74 165.763 386.131 167.727 399.224C167.727 402.45 172.409 402.612 174.347 400.998C182.861 392.903 189.002 382.64 192.109 371.316C192.65 369.731 193.185 368.086 193.731 366.407C197.741 354.071 202.35 339.892 214.714 334.212C230.267 327.405 245.548 339.467 257.441 348.855C258.513 349.701 259.557 350.526 260.572 351.312C269.679 359.355 280.872 364.667 292.866 366.638C296.257 366.638 297.387 363.089 296.256 360.669C282.047 328.405 263.963 281.784 295.449 253.714C307.978 242.696 324.171 238.902 340.419 235.096C353.906 231.936 367.431 228.768 378.929 221.451C379.466 221.152 379.927 220.734 380.278 220.23C380.629 219.726 380.86 219.148 380.953 218.541C381.047 217.935 381 217.315 380.817 216.728C380.634 216.142 380.32 215.606 379.898 215.159C367.65 202.922 352.259 197.326 336.646 191.649C326.737 188.046 316.739 184.41 307.398 179.024C299.834 174.678 293.626 168.321 289.464 160.659C285.302 152.998 283.349 144.333 283.823 135.629C285.965 115.223 293.121 95.6612 304.653 78.6835C305.023 78.0761 305.226 77.3817 305.241 76.6708C305.256 75.9598 305.083 75.2576 304.738 74.6352C304.394 74.0128 303.891 73.4924 303.281 73.1268C302.67 72.7612 301.974 72.5633 301.262 72.5533C285.886 74.6712 271.043 79.6506 257.504 87.2333C240.549 95.138 219.397 103.365 203.25 89.3304C188.393 77.2112 184.378 58.5264 180.363 39.84C177.484 26.4397 174.605 13.0385 167.727 2.05701C167.332 1.35546 166.736 0.787886 166.016 0.427355C165.296 0.0668232 164.484 -0.0702083 163.686 0.0338789C162.887 0.137966 162.138 0.478455 161.534 1.01148C160.931 1.5445 160.501 2.24567 160.299 3.02488L144.152 55.9375C141.007 72.0796 134.456 87.3675 124.937 100.784C107.177 119.893 81.6301 109.489 58.3148 99.9939C48.5623 96.0223 39.2003 92.2097 30.9619 90.7824C27.7325 90.7824 24.18 93.5247 26.2791 96.7511C33.2223 107.398 39.8426 118.368 45.9785 129.015C46.4139 129.815 47.0353 130.894 47.7804 132.186C53.7837 142.603 67.8114 166.942 57.2043 172.046C57.057 172.1 56.9097 172.165 56.7626 172.242C56.6169 172.301 56.4669 172.357 56.3128 172.41C55.6933 172.637 55.1875 172.961 54.7866 173.351ZM63.5786 148.051C68.2554 158.125 72.0064 172.165 61.541 178.566C61.27 178.859 60.9292 179.123 60.5111 179.346C45.8232 187.613 30.3243 194.333 14.2654 199.402C35.5913 211.99 57.2756 227.185 67.2926 250.488C79.2057 278.029 68.1828 306.163 54.6142 331.122C63.5101 327.227 73.0268 324.834 82.7758 324.074C97.2087 322.949 111.695 325.438 124.922 331.316C138.149 337.195 149.699 346.277 158.527 357.74C165.839 367.235 171.092 378.116 173.985 389.687C179.809 382.245 182.996 372.801 186.176 363.377C191.209 348.464 196.226 333.599 211.646 326.792C230.579 318.659 245.46 330.097 260.389 341.572C268.871 348.091 277.368 354.622 286.633 357.583C272.819 325.362 260.033 285.679 283.501 255.811C296.624 238.777 316.566 233.721 336.552 228.655C348.443 225.64 360.35 222.622 370.845 217.073C359.916 207.889 346.418 203.112 332.901 198.328C317.874 193.009 302.823 187.682 291.251 176.281C263.77 149.422 278.838 110.97 294.033 81.6053C284.244 83.6027 274.316 88.0964 264.347 92.6081C242.64 102.432 220.745 112.342 199.698 96.7511C182.642 84.019 178.266 64.2428 173.883 44.4343C171.581 34.0296 169.277 23.6161 165.132 14.2098C160.489 28.8744 155.785 43.4876 151.066 58.1441C149.677 62.4587 148.287 66.777 146.897 71.1015C143.757 85.9133 136.348 99.4837 125.583 110.141C104.852 126.822 80.6204 117.241 57.4771 108.09C50.8248 105.46 44.2624 102.865 37.8989 100.94C47.3337 116.149 55.9072 131.877 63.5786 148.051Z" stroke="#FEA7DC"/>
</svg>
