<svg width="110" height="77" viewBox="0 0 110 77" fill="none" xmlns="http://www.w3.org/2000/svg">
<path fill-rule="evenodd" clip-rule="evenodd" d="M102.133 45.945C102.127 45.9951 102.12 46.0452 102.114 46.0953C102.082 46.3591 102.049 46.6229 102.02 46.8869C101.969 47.6589 101.95 48.4105 101.977 49.1832C102.008 49.7402 102.055 50.2955 102.137 50.8473C102.306 52.002 101.347 53.0817 100.221 53.1959C100.19 53.1991 100.157 53.2017 100.124 53.2036C100.084 53.206 100.044 53.2075 100.004 53.2081C99.9157 53.2094 99.8282 53.2067 99.7479 53.2009C99.7764 53.3961 99.7784 53.5855 99.7386 53.7878C99.5583 54.9328 98.5495 55.6289 97.4527 55.5879L97.474 55.5858C95.5582 55.496 93.6354 55.5017 91.7183 55.5075C91.2528 55.5089 90.7877 55.5102 90.323 55.5103C88.0907 55.5042 85.8659 55.4888 83.6361 55.4221C78.8999 55.2824 74.1781 55.0293 69.4375 54.7608L69.4079 54.7592L69.3838 54.7579C64.9827 54.5181 60.5817 54.2783 56.1747 54.0647C54.019 53.9647 51.8709 53.8554 49.7134 53.7383C48.7162 53.6758 47.7113 53.6226 46.7157 53.5772C46.5836 53.5732 46.4513 53.5678 46.319 53.5618C46.2219 53.5574 46.1248 53.5527 46.0277 53.548C45.9108 53.5423 45.7939 53.5366 45.6771 53.5315C45.5646 53.5265 45.4521 53.5221 45.3397 53.5187L45.3404 53.5204C45.3624 53.5693 45.3845 53.6182 45.3988 53.6764C45.8286 54.684 46.1841 55.7251 46.4637 56.7824C46.7731 57.9366 46.9809 59.116 47.1876 60.2897L47.2345 60.5558C47.5888 62.5189 48.0003 64.4504 48.4817 66.392C48.952 68.3089 49.3635 70.2404 49.7238 72.177C49.7339 72.2313 49.7444 72.2859 49.7553 72.3408C49.7723 72.4268 49.7901 72.5136 49.808 72.6008C49.9729 73.4045 50.1475 74.2559 49.8235 75.0277C49.475 75.8385 48.6501 76.3703 47.7774 76.3469C47.1859 76.3293 46.6861 76.0439 46.1854 75.7581L46.1828 75.7566C46.1283 75.7255 46.0738 75.6944 46.0192 75.6637C44.9646 75.1228 43.9066 74.5886 42.8488 74.0545C39.8128 72.5215 36.778 70.9891 33.827 69.3012L33.8169 69.2953C31.5963 68.015 29.3757 66.7348 27.1856 65.417L21.3509 61.925C20.8892 61.6524 20.4278 61.3794 19.9665 61.1065L19.9405 61.0909C17.2876 59.5209 14.637 57.9523 11.9392 56.4694C10.8047 55.9038 9.6566 55.3741 8.48898 54.9066C7.40764 54.5253 6.30857 54.2232 5.2052 53.9647C5.19811 53.9631 5.19168 53.962 5.18572 53.9611C5.16948 53.9584 5.15665 53.9564 5.14288 53.9452L5.14073 53.9445C5.12407 53.9409 5.10751 53.9372 5.09337 53.9356C5.08571 53.9347 5.07877 53.9344 5.07294 53.935L4.99356 53.9172L5.00295 53.9249C4.89966 53.903 4.79605 53.8812 4.69221 53.8594L4.69031 53.859C3.88316 53.6896 3.06274 53.5172 2.28085 53.2533C1.40693 52.9629 0.702383 52.3881 0.487729 51.4621C0.203611 50.276 0.958556 49.1395 1.65416 48.2675C2.47536 47.2427 3.54359 46.3916 4.56414 45.5784L4.75235 45.4284C5.27648 45.0104 5.80972 44.6124 6.34938 44.2096L6.52805 44.0762C7.3371 43.4687 8.15184 42.8541 8.98101 42.2599C8.72103 42.0501 8.46125 41.8538 8.18699 41.6589C7.76174 41.3747 7.33653 41.0904 6.919 40.7967C6.32292 40.3575 5.96018 39.6705 5.97872 38.9189C6.00066 38.2015 6.37003 37.5953 6.92897 37.1594C6.97988 37.1186 7.03257 37.0838 7.08642 37.0526C7.13323 37.0254 7.18091 37.0011 7.22901 36.9781C7.27277 36.9571 7.31691 36.9373 7.36104 36.9174C7.70994 36.5265 8.06207 36.167 8.42105 35.8004L8.46654 35.754C9.38218 34.8424 10.4311 34.0553 11.4664 33.3039C12.2207 32.7601 13.0024 32.2657 13.7839 31.7715C14.458 31.3451 15.1319 30.9189 15.7878 30.4612C17.0136 29.5942 18.197 28.6606 19.384 27.7242C19.6294 27.5306 19.8751 27.3367 20.1213 27.1434C20.8161 26.552 21.4565 25.9103 22.0982 25.2674L22.0995 25.2662C22.4976 24.8673 22.8963 24.4679 23.3087 24.0797C24.4646 22.9887 25.701 22.0102 26.9731 21.0452C28.1975 20.1196 29.4236 19.2111 30.6592 18.3101C31.1429 17.9569 31.6296 17.6103 32.1161 17.2639L32.1174 17.263C32.9537 16.6676 33.7893 16.0726 34.6078 15.4449C35.5373 14.6699 36.4104 13.8489 37.2519 12.9707C37.3398 12.8721 37.4288 12.7735 37.5184 12.6746C37.504 11.9832 37.8359 11.2969 38.4233 10.8441L39.6026 9.92508C41.6625 8.32057 43.7234 6.71522 45.7567 5.07621C46.6308 4.34986 47.4673 3.59288 48.2833 2.80349L48.3335 2.75575L48.4175 2.67539L48.5479 2.5498C49.0152 2.09905 49.5007 1.63083 50.0622 1.31318C51.096 0.717097 52.4048 0.877165 53.1109 1.89123C53.5488 2.50596 53.6607 3.41239 53.7536 4.16461L53.7626 4.2378C53.8403 4.83306 53.8651 5.41653 53.8821 6.00935C53.8999 6.49991 53.8426 6.99804 53.7861 7.48908C53.7678 7.64849 53.7495 7.80711 53.734 7.96449C53.6596 8.86487 53.5871 9.76571 53.5368 10.6715C53.4922 11.6039 53.5027 12.5306 53.5131 13.4636L53.5167 13.7842C53.5318 14.7822 53.5128 15.7837 53.4767 16.7869C53.4684 16.9813 53.4588 17.1756 53.4487 17.3698L53.4288 17.7433C53.3851 18.5563 53.3415 19.3673 53.3555 20.1769C54.0663 20.1963 54.7792 20.1623 55.4871 20.1285L55.491 20.1283C55.849 20.1113 56.2056 20.0943 56.5602 20.0843C56.7875 20.0752 57.0148 20.0651 57.242 20.0546C57.5065 20.0423 57.7709 20.0293 58.0354 20.0163L58.0439 20.0158C58.5355 19.9917 59.0271 19.9675 59.5191 19.9477C60.6195 19.891 61.7067 19.9141 62.7983 19.9373L63.1205 19.9441C64.0723 19.9678 65.0153 19.9562 65.9571 19.9445C66.2291 19.9412 66.5011 19.9378 66.7731 19.9353C67.8688 19.9281 68.9712 19.9128 70.0713 19.8696L70.0494 19.8699C71.4842 19.8138 72.9154 19.7407 74.3456 19.6677C75.9438 19.5861 77.5408 19.5047 79.1402 19.4469C80.6082 19.3927 82.0796 19.3727 83.5434 19.3619C84.0728 19.3608 84.6016 19.3654 85.1302 19.3699C86.0724 19.3779 87.0137 19.386 87.9552 19.3622C89.5843 19.283 91.2134 19.2038 92.8564 19.2611C93.8794 19.2967 94.9042 19.3823 95.9299 19.4679L95.9323 19.4682L95.9365 19.4685C96.5558 19.5202 97.1754 19.5721 97.795 19.6129C99.1789 19.7104 100.565 19.7598 101.957 19.8094L101.961 19.8095L102.47 19.8277C102.591 19.8319 102.713 19.8344 102.833 19.8368L102.835 19.8368L102.837 19.8369C103.093 19.842 103.347 19.8472 103.594 19.8687C104.132 19.9003 104.651 20.0889 105.055 20.4184C105.205 20.541 105.34 20.6825 105.46 20.8426C105.971 21.5674 105.891 22.4072 105.812 23.2345C105.802 23.3341 105.793 23.4336 105.784 23.5325C105.793 23.4455 105.801 23.3586 105.817 23.2621C105.766 23.8619 105.724 24.4692 105.734 25.0715L105.758 25.3103C105.843 25.7238 105.954 26.1434 106.074 26.5535C106.299 27.2458 106.543 27.9298 106.787 28.6138C107.031 29.2977 107.275 29.9817 107.5 30.674C108.047 32.3247 108.373 34.0148 108.651 35.7273L108.649 35.7102C108.779 36.4717 108.858 37.2356 108.938 37.9969L108.938 37.9984C109 38.5999 109.063 39.1998 109.15 39.7954C109.497 40.4687 109.441 41.308 109.018 41.9834C108.896 42.1637 108.748 42.3232 108.583 42.4606C108.584 42.4616 108.584 42.4626 108.585 42.4636C109.043 43.4166 108.826 44.5848 107.934 45.2182C107.274 45.6815 106.455 45.7646 105.677 45.8178C105.248 45.844 104.83 45.8779 104.409 45.8947C103.652 45.926 102.894 45.9477 102.133 45.945ZM101.558 38.4376C101.401 37.8245 101.237 37.2208 101.063 36.6094C100.762 35.5198 100.343 34.1922 99.4533 33.4037L99.3499 33.3194C98.7915 32.9107 98.2221 32.6497 97.5319 32.556C97.0439 32.5021 96.5433 32.5789 96.0597 32.6538C95.6058 32.734 95.1612 32.8219 94.7166 32.9098L94.7072 32.9117C94.3508 32.9651 94.002 33.0091 93.642 33.0284C93.1096 33.0357 92.5779 33.0251 92.0474 33.0146C91.6008 33.0057 91.154 32.9968 90.7093 32.9987C89.7583 33.0073 88.8109 33.0529 87.8688 33.0983L87.3699 33.1222C86.476 33.144 85.5974 33.147 84.6982 33.1176C84.4528 33.1102 84.2077 33.1009 83.9627 33.0916L83.9425 33.0908C83.28 33.0655 82.6185 33.0402 81.9515 33.0517C80.5242 33.0758 79.1035 33.165 77.6793 33.2543L77.6744 33.2546L77.6725 33.2547C77.418 33.2707 77.1634 33.2867 76.9086 33.3022C76.6581 33.3176 76.4074 33.3326 76.1565 33.3469C75.3231 33.3712 74.5052 33.3766 73.6649 33.3327C73.3088 33.3141 72.9555 33.2921 72.6033 33.2702L72.5984 33.2699L72.5953 33.2696C72.119 33.24 71.6448 33.2105 71.1687 33.1897C69.3593 33.1063 67.5646 33.0816 65.7562 33.0928C63.4624 33.121 61.1773 33.272 58.8933 33.423C57.7154 33.5009 56.5379 33.5787 55.3596 33.6397C53.2843 33.6521 51.225 33.5682 49.1647 33.3895L47.946 33.2873C47.1329 33.2186 46.3198 33.1498 45.515 33.0879C44.9403 33.0461 44.3672 33.0478 43.7911 33.0495C43.3751 33.0507 42.9577 33.052 42.537 33.0369L42.3909 32.8707C42.4102 32.9012 42.4312 32.9296 42.4521 32.9561C42.4757 32.9859 42.4991 33.0133 42.52 33.0386C42.4226 32.9279 42.3346 32.8247 42.2619 32.7029C42.2405 32.6621 42.2169 32.6194 42.1933 32.5767L42.1924 32.5752L42.1592 32.515C42.1471 32.4929 42.1353 32.471 42.1242 32.4497C42.115 32.4199 42.1048 32.3912 42.0943 32.3629L42.0828 32.3319L42.0818 32.3291L42.0629 32.2782C42.0547 32.2554 42.0467 32.2323 42.0394 32.2085C42.0337 32.1855 42.0278 32.16 42.0216 32.133C42.0121 32.0905 42.0021 32.0442 41.9921 31.9979L41.9696 31.7761C41.9569 31.0101 42.0165 30.2319 42.076 29.4563C42.0845 29.3449 42.093 29.2336 42.1013 29.1225C42.1118 28.9817 42.122 28.8411 42.1314 28.7008C42.1837 27.7735 42.2285 26.8555 42.2808 25.9282C42.3055 25.5015 42.3361 25.0731 42.3667 24.6439L42.3669 24.6423C42.4178 23.9297 42.4688 23.215 42.4933 22.503C42.518 21.8973 42.5256 21.2934 42.4479 20.6981C42.3876 20.2734 42.2455 19.8914 42.0674 19.4959C41.7003 18.6801 40.6469 18.1494 39.7846 18.2283C38.8805 18.3201 38.2714 18.8558 37.6334 19.4462L36.7108 20.2895C36.2504 20.7233 35.79 21.1572 35.332 21.5881C35.1172 21.7902 34.9029 21.9917 34.6894 22.1922C33.312 23.478 31.9029 24.7067 30.4486 25.9142C28.8213 27.1996 27.1845 28.4772 25.5401 29.7643C24.2234 30.7911 22.9205 31.8484 21.6196 32.9039C21.2639 33.1926 20.9082 33.4812 20.5525 33.769C17.9109 35.8981 15.147 37.8687 12.3811 39.8343C12.2509 39.5118 12.042 39.2181 11.7589 38.9871L11.5052 38.7802C11.585 38.706 11.6641 38.6325 11.7432 38.5597L11.8614 38.4513C12.0007 38.3242 12.141 38.1983 12.2864 38.0719C13.5132 37.0857 14.7846 36.1984 16.1124 35.3571C17.5372 34.4542 18.9169 33.53 20.241 32.4822C20.3824 32.3715 20.5242 32.2613 20.6661 32.1513C20.7963 32.0503 20.9267 31.9495 21.0571 31.8487C22.1312 31.0184 23.2048 30.1884 24.1968 29.263C24.6317 28.8637 25.0432 28.4389 25.4539 28.0151C25.6907 27.7707 25.9272 27.5267 26.1677 27.288C26.7145 26.7327 27.31 26.2328 27.8979 25.7423C30.1796 23.9425 32.5399 22.238 34.9019 20.5507C36.2534 19.6036 37.5503 18.6275 38.7727 17.5125C39.6467 16.7027 40.4494 15.8217 41.2526 14.9401L41.4921 14.6773C41.7811 14.5532 42.0367 14.3549 42.2437 14.1012C42.5235 13.7582 42.6906 13.3459 42.7446 12.9118C44.1327 11.8267 45.5189 10.7346 46.9005 9.639C47.7628 8.96554 48.6326 8.28275 49.4556 7.56156C49.4507 7.61256 49.446 7.66333 49.4414 7.71388C49.433 7.80749 49.4253 7.90037 49.4179 7.99279C49.4056 8.14643 49.3944 8.29876 49.3832 8.4511L49.3827 8.45647C49.3623 8.78176 49.338 9.10671 49.3139 9.43152C49.2561 10.2065 49.1983 10.981 49.1923 11.7588C49.1913 12.2587 49.1993 12.7619 49.2073 13.2652C49.2153 13.7685 49.2233 14.2717 49.2223 14.7716C49.2137 15.8754 49.171 16.9827 49.1189 18.0823C49.1117 18.26 49.1023 18.4385 49.0929 18.6175C49.0703 19.0486 49.0476 19.4814 49.0542 19.907C49.0582 20.8802 49.066 22.0599 49.6924 22.8839C50.2181 23.5629 50.9004 24.0883 51.7392 24.2875C52.5251 24.4749 53.3167 24.4634 54.1159 24.4426C56.152 24.3825 58.1846 24.2882 60.2172 24.1939C60.9974 24.1727 61.7707 24.19 62.5437 24.2074C63.15 24.2209 63.7562 24.2346 64.3654 24.2295C64.7619 24.2275 65.1585 24.2268 65.5553 24.2261L65.5736 24.2261L65.5786 24.2262C66.6048 24.2244 67.6323 24.2226 68.662 24.1984C70.3203 24.1602 71.979 24.0697 73.6385 23.9791C74.7463 23.9186 75.8543 23.8582 76.9628 23.8133L76.9867 23.8123L77.0566 23.8099L77.091 23.8081L77.4875 23.7954L77.4913 23.7953L77.4941 23.7953C79.5974 23.724 81.6935 23.653 83.7903 23.6625C84.2384 23.6615 84.6873 23.6685 85.1368 23.6756L85.1387 23.6757C85.8205 23.6864 86.5037 23.697 87.187 23.6796C88.3479 23.6566 89.4977 23.6088 90.6552 23.5516C91.7667 23.5508 92.8705 23.5594 93.9812 23.6362C94.1962 23.65 94.411 23.6657 94.6257 23.6824C94.9307 23.7061 95.2355 23.7321 95.5403 23.758C95.8182 23.7817 96.0961 23.8053 96.3742 23.8273C96.6157 23.8465 96.8575 23.8643 97.0994 23.8798C98.2707 23.9591 99.4402 24.0214 100.617 24.0742C100.822 24.0915 101.031 24.0945 101.236 24.0974L101.345 24.099L101.456 24.1012C101.45 24.1838 101.447 24.2689 101.445 24.352L101.442 24.4639L101.44 24.5422C101.428 25.6895 101.658 26.7691 102.002 27.863C102.264 28.6841 102.553 29.4947 102.843 30.3059C103.084 30.979 103.324 31.6526 103.55 32.333L103.603 32.5232L103.605 32.5304C103.818 33.2955 104.033 34.067 104.175 34.8459C104.255 35.3806 104.343 35.906 104.44 36.439L104.431 36.4313L104.438 36.4996C104.473 36.849 104.517 37.1975 104.561 37.546L104.562 37.5474C104.606 37.896 104.649 38.2446 104.685 38.5942C104.694 38.6746 104.702 38.7559 104.709 38.8378C104.716 38.9066 104.722 38.9758 104.728 39.0454L104.743 39.2174C104.811 40.014 104.882 40.8461 105.2 41.5638C104.633 41.6113 104.069 41.6318 103.505 41.6523C103.081 41.6568 102.653 41.6581 102.226 41.6558C102.086 40.5686 101.831 39.488 101.558 38.4376ZM11.8937 51.6917C10.7849 51.2097 9.66258 50.7635 8.49767 50.4078C7.73302 50.1752 6.95649 49.9956 6.1911 49.8406C6.37182 49.6796 6.54776 49.5244 6.73106 49.3696C6.7816 49.3318 6.8331 49.2901 6.88036 49.245L6.80215 49.3098L6.73106 49.3696C6.71908 49.3785 6.70711 49.3873 6.69528 49.3958L6.65709 49.4228C8.6569 47.8052 10.7496 46.3003 12.8396 44.7974L12.8414 44.796C13.106 44.6058 13.3705 44.4156 13.6347 44.2252C14.2687 43.7696 14.902 43.3165 15.5346 42.8639L15.604 42.8142L15.6321 42.7942C17.0419 41.7857 18.4469 40.7806 19.8423 39.7608C21.3363 38.6694 22.775 37.5108 24.2158 36.3506L25.0465 35.6824C26.9413 34.1459 28.8643 32.6324 30.7891 31.1359C32.5707 29.7573 34.3412 28.354 36.0066 26.8494C36.7017 26.2273 37.378 25.59 38.0621 24.9433C38.0295 25.386 37.9951 25.8118 37.9702 26.2451C37.9114 27.4488 37.845 28.6619 37.7597 29.8596C37.7494 30.0164 37.7368 30.1751 37.7241 30.3352L37.7237 30.3395C37.6738 30.9664 37.6224 31.6128 37.6992 32.2354C37.8521 33.4865 38.2616 34.634 39.0683 35.6206C39.8732 36.5902 40.9328 37.2668 42.2159 37.3434C42.528 37.3574 42.8382 37.3522 43.1471 37.3471C43.4207 37.3425 43.6933 37.338 43.9654 37.3468C45.565 37.3875 47.1629 37.526 48.7623 37.6646L48.7655 37.665C49.5404 37.7322 50.3155 37.7995 51.0914 37.8557C53.2617 38.0145 55.4394 37.9916 57.6033 37.8323C59.8959 37.6686 62.1826 37.5313 64.4728 37.4281L65.0267 37.4226C66.2432 37.4103 67.454 37.398 68.6688 37.4244C69.8114 37.4418 70.9522 37.5039 72.0977 37.5663L72.1014 37.5666L72.6586 37.5967C74.0117 37.6834 75.3595 37.719 76.7216 37.6411C77.1417 37.6153 77.5597 37.5879 77.9772 37.5606L77.984 37.5601C78.2275 37.5442 78.4707 37.5283 78.714 37.5127C78.9136 37.4999 79.1132 37.4873 79.3129 37.4752C79.7267 37.4501 80.1414 37.4267 80.5581 37.4067C82.0297 37.3823 83.483 37.4161 84.9511 37.4502L85.1039 37.4538C86.4526 37.493 87.8056 37.4276 89.1527 37.3625L89.1543 37.3624L89.1579 37.3621L89.4618 37.3475C90.2374 37.3294 91.012 37.3361 91.7853 37.3428C92.2205 37.3466 92.6554 37.3504 93.0897 37.3497C93.796 37.347 94.4894 37.3024 95.1853 37.1974C95.5723 37.1381 95.9526 37.0641 96.3279 36.991L96.5285 36.9521L96.6572 36.9273C96.7403 37.1515 96.8234 37.3758 96.8988 37.6094C97.2924 39.0257 97.669 40.4437 97.9279 41.8908C97.9865 42.2985 98.0298 42.725 98.0543 43.1361C98.0555 43.4811 98.0345 43.8177 98.0134 44.1562L98.0133 44.159C98.0075 44.2506 98.0018 44.3424 97.9965 44.4345C97.8455 45.5786 97.7022 46.7133 97.6629 47.8547C97.6296 48.9696 97.6757 50.1023 97.8394 51.2059C97.1931 50.8665 96.4109 50.8856 95.7828 51.2337C95.5196 51.2303 95.257 51.2311 94.9943 51.2319C94.7315 51.2327 94.4687 51.2335 94.2055 51.2301C93.6462 51.2285 93.0869 51.2273 92.5276 51.2262L92.4385 51.226L92.4353 51.2259L92.4332 51.2259C88.4049 51.2179 84.379 51.2098 80.3549 51.0246C75.5836 50.7937 70.8182 50.5363 66.0435 50.2713C62.4321 50.0695 58.8235 49.8964 55.2149 49.7234L55.2107 49.7232L51.5975 49.5488C50.7569 49.5082 49.9156 49.4604 49.0742 49.4125C47.6709 49.3328 46.2675 49.253 44.8676 49.2066C44.8009 49.2051 44.7339 49.2032 44.6665 49.201C44.5851 49.1984 44.5031 49.1954 44.4208 49.1923C43.7851 49.1687 43.1274 49.1444 42.5151 49.2902C41.4449 49.5281 40.5975 50.4327 40.4225 51.5103C40.2535 52.5615 40.6627 53.5367 41.0684 54.4778C41.4425 55.3619 41.8072 56.2382 42.1071 57.1556C42.5172 58.5718 42.7817 60.0142 43.0465 61.4588L43.0474 61.4635C43.1079 61.7933 43.1684 62.1232 43.2307 62.4529C43.4861 63.866 43.7834 65.2662 44.1317 66.6612C44.2192 67.0255 44.3086 67.3873 44.3977 67.7481L44.3986 67.7521L44.4 67.7575C44.6145 68.6265 44.8275 69.4891 45.0073 70.3637C44.6906 70.2149 44.3816 70.0567 44.0725 69.8985C42.7007 69.2019 41.3272 68.4883 39.963 67.7823C36.5516 65.9226 33.1879 64.0237 29.8667 62.0342C25.8848 59.6466 21.878 57.2701 17.873 54.9106C15.9299 53.7636 13.9602 52.6107 11.8937 51.6917Z" fill="#FF6613"/>
<path d="M109.084 41.8786C109.063 41.9143 109.041 41.9491 109.018 41.9834C108.983 42.039 108.946 42.0935 108.906 42.1467C108.941 42.1032 108.974 42.0571 109.005 42.01C109.027 41.9757 109.049 41.9408 109.071 41.9059L109.084 41.8786Z" fill="#FF6613"/>
<path d="M109.084 41.8786C109.125 41.8091 109.163 41.7367 109.196 41.6615C109.178 41.7024 109.155 41.7438 109.132 41.7864C109.116 41.8164 109.1 41.847 109.084 41.8786Z" fill="#FF6613"/>
<path d="M97.4527 55.5879C97.4339 55.5872 97.4151 55.5862 97.3963 55.5851C97.4167 55.5897 97.4314 55.5897 97.4527 55.5879Z" fill="#FF6613"/>
</svg>
