<svg viewBox="0 0 28 28" fill="none" xmlns="http://www.w3.org/2000/svg">
<circle cx="14" cy="14" r="13.25" stroke="#FF6613" stroke-width="1.5"/>
<path d="M20.6669 6.6665H11.778V9.44428H12.8891V7.77762H20.6669C21.0002 7.77762 21.2224 7.99984 21.2224 8.33317V14.4443C21.2224 14.7776 21.0002 14.9998 20.6669 14.9998H13.4447V18.8887H10.5002L8.44466 20.4998V18.8887H6.77799C6.44466 18.8887 6.22244 18.6665 6.22244 18.3332V12.2221C6.22244 11.8887 6.44466 11.6665 6.77799 11.6665H14.0002V10.5554H6.77799C5.83355 10.5554 5.11133 11.2776 5.11133 12.2221V18.3332C5.11133 19.2776 5.83355 19.9998 6.77799 19.9998H7.33355V22.8332L10.8335 19.9998H14.5558V16.1109H20.6669C21.6113 16.1109 22.3335 15.3887 22.3335 14.4443V8.33317C22.3335 7.38873 21.6113 6.6665 20.6669 6.6665Z" fill="#FF6613"/>
<path d="M7.44434 17.7223H8.77767L9.111 16.8334H10.8332L11.1666 17.7223H12.4999L10.611 12.7778H9.27767L7.44434 17.7223ZM9.94434 14.1667L10.4999 15.8889H9.38878L9.94434 14.1667Z" fill="#FF6613"/>
<path d="M15.1113 14.4446C15.7224 14.4446 16.5558 14.2779 17.3336 13.8891C18.1113 14.2779 19.0002 14.4446 19.5558 14.4446V13.3335C19.5558 13.3335 19.0002 13.3335 18.3891 13.1113C19.0558 12.4446 19.5558 11.4446 19.5558 10.0002V9.44461H17.8891V8.3335H16.778V9.44461H15.1113V10.5557H18.3891C18.278 11.5557 17.8336 12.1668 17.3336 12.5557C17.0002 12.2779 16.6669 11.8891 16.4447 11.3891H15.278C15.5002 12.1113 15.8336 12.6668 16.278 13.1113C15.7224 13.3335 15.2224 13.3335 15.1113 13.3335V14.4446Z" fill="#FF6613"/>
</svg>
