<svg width="314" height="308" viewBox="0 0 314 308" fill="none" xmlns="http://www.w3.org/2000/svg">
<path d="M109.817 124.952C112.357 124.709 114.965 124.824 116.996 122.635C117.878 121.685 119.083 121.74 120.068 122.402C122.303 123.907 124.495 125.472 126.592 126.934C129.491 136.599 134.48 145.068 139.382 153.578C139.76 154.232 140.439 154.873 141.155 155.128C141.834 155.364 142.942 155.35 143.51 154.96C144.424 154.331 145.158 153.364 145.772 152.429C147.649 149.586 149.466 146.709 151.242 143.817C153.172 140.673 154.928 137.482 155.316 133.835C155.496 132.135 156.487 130.659 158.182 129.861C159.894 129.06 160.889 127.743 161.701 126.245C163.037 123.781 163.801 121.061 165.972 118.982C166.658 118.326 166.518 117.494 166.335 116.675C165.927 114.834 167 113.558 168.499 112.474L168.453 112.592C168.728 110.968 169.051 109.348 169.268 107.719C169.408 106.643 169.805 105.343 169.374 104.517C167.79 101.482 168.955 98.7616 170.522 95.9604C171.07 94.9787 171.587 93.9367 171.839 92.8788C173.196 87.1812 175.976 81.9038 178.163 76.4481C180.174 71.4428 183.323 67.0276 186.239 62.4778C186.538 62.0107 187.032 61.6508 187.433 61.2372C189.044 59.5786 192.11 59.6388 193.416 61.4566C194.024 62.3014 194.667 63.2859 194.752 64.2833C194.935 66.4725 196.081 67.6605 198.181 68.2065C200.669 68.8499 201.02 71.7029 200.184 73.5855C199.276 75.634 198.108 77.5957 197.093 79.6099C194.554 84.6508 192.021 89.6931 189.516 94.7461C188.111 97.5787 187.199 100.427 188.269 103.461C188.649 104.54 187.833 105.554 187.002 106.405L187.132 106.44C185.525 105.748 184.881 105.776 184.389 106.587C183.251 108.456 182.306 110.37 182.447 112.534L182.31 112.495C183.442 112.337 184.58 112.227 185.702 112.005C186.506 111.847 187.487 111.75 188.053 111.268C190.001 109.592 192.341 108.249 193.488 105.816C193.645 105.482 194.459 105.387 194.969 105.182C195.128 105.675 195.301 106.162 195.444 106.659C195.517 106.916 195.533 107.189 195.573 107.455C195.299 108.246 195.025 109.038 194.747 109.832L194.601 109.793C194.879 108.999 195.158 108.209 195.438 107.418C196.469 106.459 197.488 105.484 198.541 104.547C198.713 104.393 199.067 104.329 199.304 104.363C199.958 104.462 200.264 104.914 200.011 105.55C198.393 109.641 196.823 113.755 194.274 117.495C193.313 118.904 192.264 120.215 190.529 120.828L190.721 120.873C190.047 118.88 191.455 116.994 191.495 115.035L191.61 115.069C190.923 115.533 190.158 115.919 189.563 116.472C187.822 118.104 186.153 117.974 184.458 116.807L184.715 116.477L184.64 116.862C183.034 117.758 182.091 119.167 181.294 120.684C175.539 131.669 169.787 142.653 164.038 153.643C163.91 153.89 163.777 154.172 163.779 154.427C163.785 154.941 163.697 155.597 163.985 155.917C164.282 156.245 165.019 156.459 165.487 156.344C166.593 156.075 167.664 155.603 168.73 155.167C169.804 154.728 170.845 153.921 171.923 153.812C176.87 153.298 181.296 150.904 186.021 149.631C193.612 147.587 201.316 146.808 209.048 146.424C209.903 146.38 210.821 146.287 211.594 146.507C214.828 147.445 218.069 148.191 221.591 147.263C226.449 147.833 230.807 149.487 234.684 152.11C235.801 152.865 236.787 153.799 237.786 154.696C239.228 155.986 240.225 157.478 240.114 159.569C239.958 162.489 241.305 164.636 243.593 166.403C245.287 167.712 246.678 169.37 248.199 170.875C252.455 175.094 252.744 174.841 246.967 178.066C246.717 178.205 246.518 178.433 246.297 178.616L246.359 178.468C245.424 181.227 242.8 182.06 240.449 183.104C239.771 183.406 238.707 183.273 238.013 182.981C236.501 182.346 235.105 181.485 233.667 180.705C229.467 178.43 224.821 177.63 219.868 177.839C218.155 177.911 216.436 178.106 214.728 178.116C213.908 178.12 212.773 178.109 212.353 177.635C210.583 175.624 208.288 176.175 206.073 176.755C200.463 178.229 195.089 180.442 189.793 182.841C187.942 183.681 186.165 184.696 184.301 185.501C176.596 188.825 177.798 187.823 173.729 193.746C172.795 195.108 171.318 196.163 170.061 197.326C168.227 199.023 168.047 200.39 169.507 202.332C171.108 204.466 172.726 206.596 175.058 208.08C177.639 209.72 179.514 211.921 180.859 214.585C183.967 220.742 187.172 226.844 191.219 232.474C191.424 232.76 191.147 233.438 190.972 233.9C190.907 234.071 190.478 234.243 190.227 234.245C189.373 234.263 188.52 234.105 187.674 234.192C185.429 234.417 183.965 233.399 182.683 231.923C182.553 231.773 181.806 232.076 181.375 232.254C181.302 232.283 181.294 232.778 181.41 232.966C182.096 234.069 183.335 234.897 183.241 236.376C183.214 236.825 182.81 237.305 182.489 237.711C182.405 237.819 181.897 237.802 181.75 237.673C180.951 236.971 180.251 236.165 179.421 235.495C178.526 234.77 177.353 235.27 176.802 236.633C176.607 237.119 176.706 237.695 176.668 238.232L176.695 238.149C174.289 237.501 172.621 235.633 169.928 235.268C166.813 234.844 164.472 232.805 162.371 230.697C158.191 226.508 154.882 221.668 151.472 216.902C148.063 212.14 144.649 207.385 141.176 202.669C140.392 201.604 139.519 200.483 138.394 199.793C135.278 197.871 133.107 195.261 131.592 192.075C131.083 191.007 129.915 190.834 128.951 190.346C128.016 189.868 127.073 189.214 126.488 188.396C125.752 187.358 126.62 185.591 125.29 184.767C124.145 184.057 122.748 183.678 121.64 182.932C121.038 182.528 120.695 181.699 120.435 180.984C120.268 180.52 120.298 179.86 120.515 179.389C121.806 176.616 118.469 174.493 120.099 171.544C121.361 169.26 120.4 166.724 120.469 164.302C120.536 162.089 120.105 160.034 119.089 158.099C118.349 156.687 117.886 155.117 117.06 153.763C112.884 146.936 110.216 139.347 106.231 132.421C105.577 131.28 105.143 129.998 104.743 128.738C103.874 126.001 105.737 124.335 109.202 124.712C109.474 124.742 109.723 124.898 109.98 124.995L109.803 125.266L109.817 124.952ZM158.685 142.815C158.962 142.073 159.238 141.331 159.515 140.589C159.781 139.844 160.047 139.1 160.312 138.355L160.477 138.098L160.433 138.39C160.173 139.136 159.911 139.879 159.65 140.625C159.374 141.367 159.097 142.109 158.822 142.854C158.53 143.647 158.241 144.437 157.947 145.227C156.183 145.245 154.56 145.492 153.399 147.143C150.601 151.131 148.503 155.422 146.518 159.76C146.33 160.17 146.483 160.885 146.77 161.23C147.065 161.581 147.772 161.9 148.21 161.791C150.172 161.316 152.085 160.572 154.051 160.133C156.519 159.583 158.238 158.034 159.597 156.204C162.176 152.73 163.965 148.904 164.899 144.814C165.298 143.061 164.588 141.654 163.277 140.534C163.56 139.751 163.843 138.967 164.126 138.184C164.396 137.446 164.665 136.708 164.934 135.97C167.427 134.732 169.416 133.029 169.326 130.237C169.241 127.626 170.674 125.501 171.676 123.22C173.129 119.897 174.958 116.647 174.6 112.974C174.882 112.199 175.167 111.428 175.45 110.653C178.235 105.359 181.021 100.066 182.632 94.3727C182.922 93.5854 183.211 92.7946 183.501 92.0073C186.141 89.2062 187.801 86.0192 188.228 82.3643L188.362 82.4057C185.416 85.0879 184.155 88.4218 183.617 92.0411C183.333 92.8333 183.05 93.6254 182.767 94.4176C178.759 98.0715 176.917 102.728 175.466 107.519C175.168 108.507 175.518 109.627 175.567 110.69C175.284 111.465 175.002 112.24 174.719 113.015C173.149 113.9 172.07 115.226 171.376 116.753C169.434 121.039 167.494 125.329 165.747 129.676C164.932 131.706 164.424 133.87 165.052 136.007C164.788 136.746 164.522 137.482 164.254 138.224C163.97 139.004 163.683 139.789 163.398 140.57C162.548 141.717 161.715 142.868 160.849 144.002C160.079 145.009 159.051 145.391 157.824 145.197C158.115 144.401 158.398 143.609 158.685 142.815ZM172.717 97.7378L172.75 97.4602C172.75 97.4602 172.732 97.7042 172.736 97.7023L172.629 98.0268L172.717 97.7378ZM205.838 168.915C206.684 168.944 207.539 169.071 208.373 168.961C208.842 168.901 209.547 168.508 209.662 168.153C209.77 167.824 209.354 167.114 208.977 166.964C206.322 165.935 203.489 166.18 200.649 166.732C198.965 167.058 197.252 167.865 195.63 167.8C190.067 167.571 184.992 169.586 179.772 171.262C175.58 172.608 172.199 175.448 168.15 176.997C167.894 177.097 167.824 177.859 167.782 178.316C167.768 178.443 168.177 178.708 168.374 178.683C171.761 178.238 175.149 177.76 178.534 177.286C182.795 175.033 187.419 175.269 191.913 174.684C192.569 174.598 192.679 175.267 192.368 175.924C192.174 176.341 192.181 176.829 192.077 177.391C193.538 177.104 194.936 176.884 196.309 176.554C200.81 175.47 204.152 173.038 205.87 168.77L205.838 168.915Z" fill="#FEA7DC"/>
<path d="M24.3797 218.306C24.4321 217.241 24.2154 216.098 24.5877 215.119C25.6782 212.237 27.3272 209.585 29.3359 207.121C30.2377 206.02 31.3796 204.904 31.7719 203.658C32.9335 199.954 33.9531 196.263 36.6555 193.105C37.1282 192.552 37.1309 191.517 37.0812 190.74C36.9756 189.139 36.6914 187.562 36.4136 185.486C37.45 183.747 38.9714 181.665 39.9856 179.408C42.3332 174.206 46.3197 170.798 51.7104 168.67C52.0859 168.521 52.6158 167.746 52.5173 167.584C52.28 167.19 51.7453 166.944 51.2848 166.714C50.81 166.474 50.2562 166.361 49.7888 166.109C49.5947 166.006 49.3877 165.644 49.453 165.473C49.6259 165.007 49.8409 164.344 50.2148 164.184C51.8115 163.493 53.4652 162.948 55.1033 162.364C56.1941 161.976 57.512 161.862 58.3524 161.189C61.762 158.457 65.5243 158.68 68.9616 159.696C75.8959 161.743 82.6776 164.232 87.6558 169.462C89.6787 171.59 91.6609 173.756 93.6524 175.912C96.5472 179.042 98.8745 182.651 102.416 185.247C103.48 186.026 104.239 187.197 105.035 188.26C106.635 190.39 108.039 192.665 109.753 194.702C111.284 196.522 111.976 198.847 114.005 200.43C115.343 201.475 114.189 204.181 116.175 205.26C118.58 209.136 119.441 213.658 121.17 217.822C121.892 219.559 121.904 221.483 121.5 223.414C121.502 223.417 121.652 223.454 121.652 223.454C121.035 222.396 120.701 221.072 119.072 220.929C118.347 222.246 118.71 223.543 118.675 224.838C118.597 227.585 118.468 227.713 114.576 228.927L114.717 228.957C114.439 228.547 114.209 228.107 114.028 227.642C114.04 226.419 114.056 225.193 114.068 223.97C114.064 223.972 114.176 224.017 114.176 224.017C113.471 225.289 113.692 226.493 114.184 227.68C112.031 228.917 110.695 230.637 110.271 232.988C109.835 235.423 109.34 237.854 108.761 240.273C108.306 242.171 107.542 243.931 105.85 245.316C104.985 246.022 104.101 246.944 103.718 247.912C101.471 253.629 97.8287 258.882 96.2823 264.806C94.9156 270.027 91.11 274.186 88.9437 279.046C88.7248 279.54 88.3028 280.011 87.8703 280.373C82.5244 284.864 78.3874 290.405 73.4077 295.205C71.9603 296.603 70.2685 297.775 68.8406 299.193C67.4184 300.604 66.1871 302.184 64.8682 303.695C64.6903 303.685 64.5124 303.675 64.3346 303.665C64.5278 303.633 64.7191 303.606 64.9124 303.574C65.8422 304.05 66.772 304.527 67.7089 305.008C67.1421 306.17 65.9615 306.413 64.903 306.64C61.4337 307.383 57.9916 307.327 54.8388 306.078C50.4207 304.326 45.7295 303.584 40.9597 302.959C35.6334 302.261 30.3337 301.425 25.7796 298.669C25.0832 298.246 24.2417 297.975 23.6546 297.448C18.2702 292.621 11.8136 288.883 7.16158 283.338C4.94731 280.699 3.24285 277.65 1.45096 274.702C1.09398 274.115 1.03191 272.875 1.44676 272.398C2.48303 271.205 3.2527 272.952 4.34704 272.749C5.30406 270.804 4.47951 268.987 3.77149 267.43C1.97836 263.467 1.42776 259.253 1.0625 254.947C0.902269 253.079 0.490444 251.248 0.315688 249.379C0.275106 248.961 0.753985 248.464 0.99044 248.003C1.44973 248.204 1.93527 248.365 2.35905 248.614C2.57628 248.745 2.68691 249.029 2.84607 249.245C2.72085 249.775 2.51203 250.307 2.4886 250.835C2.4566 251.608 2.84964 251.843 3.3759 251.428C3.50515 251.327 3.43212 250.899 3.34607 250.662C3.16714 250.166 2.9169 249.694 2.69582 249.216C2.8046 248.959 2.98791 248.701 3.00575 248.448C3.32382 243.868 3.2778 239.315 2.78049 234.8C2.63653 233.474 2.56789 232.114 2.20828 230.849C1.85898 229.614 1.18224 228.485 0.603126 227.202C2.26324 224.903 3.70476 222.543 4.41918 219.835C4.9762 217.722 5.92779 215.676 6.72565 213.604C7.34705 211.991 8.5564 210.781 9.92672 209.692L9.7839 209.651C9.72584 209.916 9.68236 210.182 9.60979 210.446C6.99798 219.812 6.98696 219.817 9.42448 228.39C9.52803 228.75 10.1839 229.203 10.5322 229.145C10.946 229.079 11.4017 228.556 11.6754 228.14C12.131 227.446 12.3534 226.609 12.8714 225.972C13.1248 225.661 13.82 225.606 14.3188 225.56C14.4827 225.543 14.808 225.899 14.804 226.097C14.7755 227.414 14.6269 228.743 14.6293 230.056C14.6308 230.525 14.9379 230.972 15.1067 231.43C15.5693 231.198 16.2204 231.077 16.4639 230.72C17.5687 229.102 18.4474 227.347 19.6256 225.781C20.451 224.685 21.6297 223.811 22.6506 222.84L22.5465 222.783C24.0429 223.361 24.0429 223.362 24.2452 221.894L24.1658 222.046C25.2859 221.83 26.6173 221.671 27.1312 220.613C28.5702 217.657 30.5376 214.809 30.406 211.436C32.4219 210.143 33.706 208.467 33.7512 206.142C35.5465 204.793 37.4542 203.552 38.6686 201.634C38.9502 201.189 39.1206 200.673 39.2597 200.178C39.2871 200.078 38.8285 199.754 38.7695 199.793C36.3189 201.381 34.6768 203.508 33.8974 206.189C31.6173 207.343 30.9068 209.322 30.5397 211.477C29.4058 212.734 28.2846 213.997 27.1364 215.244C26.1851 216.277 25.2017 217.284 24.2325 218.301C24.2345 218.296 24.3797 218.306 24.3797 218.306ZM74.2256 259.387C76.151 255.203 77.8765 250.761 80.1943 246.578C83.5175 240.578 85.4962 234.21 87.7532 227.92C91.6856 216.957 89.4913 206.96 84.2232 197.56C83.7181 196.661 82.9157 195.811 82.0162 195.276C78.666 193.28 75.0014 192.097 70.7874 192.737C67.9185 193.172 65.1121 193.843 62.5881 195.461C59.9003 197.185 57.2737 199.026 54.491 200.586C51.0965 202.486 48.4277 205.063 46.0556 207.976C42.612 212.203 39.0626 216.369 35.8702 220.755C33.5264 223.974 31.4928 227.403 30.3331 231.192C29.5199 233.844 28.4713 236.448 27.459 239.059C26.5274 241.457 26.1347 243.796 26.7497 246.269C27.1277 247.792 27.0357 249.471 27.003 251.085C26.9677 252.918 25.1621 253.961 23.28 253.225C22.2777 252.833 21.3277 252.281 20.481 251.65C19.62 251.01 18.9503 250.155 18.1377 249.455C17.4217 248.833 15.4511 249.415 15.188 250.29C14.2135 253.547 14.0231 256.857 15.1322 259.875C16.2292 262.861 17.9286 265.614 19.4526 268.424C19.8186 269.1 20.412 269.773 21.0988 270.133C25.5259 272.431 29.0528 275.752 32.7691 278.872C33.7821 279.724 35.0354 280.374 36.2873 280.913C43.8257 284.174 52.8983 282.831 60.1268 276.181C64.0466 272.573 66.9295 268.48 69.4253 264.038C69.6187 261.307 71.9281 260.498 74.2256 259.387ZM14.2328 242.188L14.1749 242.812L14.6725 242.647L14.2328 242.188Z" fill="#FEA7DC"/>
<path d="M216.007 2.96935C218.97 5.30749 221.867 7.6423 225.476 9.24731C229.31 10.9529 231.884 14.1937 233.835 17.7339C234.983 19.8219 235.747 22.1227 236.588 24.3661C237.334 26.3643 237.747 28.5106 238.647 30.4285C245.57 45.1497 251.737 60.2302 259.211 74.6904C262.897 81.823 267.295 88.5124 272.446 94.6941C275.212 98.0149 277.391 101.645 279.489 105.36C280.517 107.182 280.791 108.739 278.559 110.307C277.694 110.915 277.183 112.095 276.682 113.077C275.662 115.073 274.704 117.088 273.471 119.032C272.422 118.865 271.459 118.944 270.827 118.564C269.196 117.582 267.678 116.434 266.171 115.288C263.8 113.487 261.64 111.401 259.098 109.847C254.807 107.226 251.683 103.567 248.732 99.7832C242.967 92.388 238.059 84.4402 233.889 76.0649C231.869 72.0059 229.998 67.8736 228.018 63.7935C225.344 58.2816 222.899 52.6631 220.044 47.2329C217.813 42.9933 215.973 38.5716 215.937 33.5177C215.913 29.9392 214.399 26.7441 212.9 23.605C210.346 18.2611 208.899 12.5672 208.259 6.6321C208.148 5.58424 208.308 4.46729 208.483 3.39445C208.74 1.80868 211.107 0.48219 212.505 1.12106C213.749 1.69016 214.929 2.36937 216.135 3.00075L216.007 2.96935Z" fill="#FEA7DC"/>
<path d="M283.561 143.44C283.192 142.732 282.852 142.008 282.452 141.319C280.576 138.103 281.458 135.108 285.049 131.854C286.151 130.858 287.849 130.076 289.027 130.607C292.061 131.969 296.035 130.233 298.617 132.787C301.108 133.206 303.639 133.494 306.079 134.072C309.137 134.799 311.643 136.358 313.045 139.104C313.375 139.756 313.546 140.684 313.335 141.391C312.117 145.445 309.804 149.135 306.861 152.226C302.855 156.438 298.637 156.909 294.437 154.724C292.034 153.473 289.936 151.73 287.729 150.172C287.294 149.865 286.884 149.464 286.635 149.013C285.612 147.155 284.658 145.26 283.677 143.376C283.634 143.402 283.598 143.421 283.561 143.44Z" fill="#FEA7DC"/>
<path d="M145.942 220.179C145.508 220.405 145.027 220.852 144.624 220.822C143.925 220.772 143.732 220.159 144.273 219.728C144.626 219.446 145.271 219.482 145.784 219.437C145.828 219.431 145.88 219.891 145.942 220.179Z" fill="#FEA7DC"/>
<path d="M85.5796 294.606C85.7419 295.832 84.9261 296.551 83.9059 297.04C83.5279 297.22 82.9756 297.038 82.5053 297.022C82.6552 296.799 82.7555 296.507 82.9637 296.369C83.8787 295.777 84.8221 295.231 85.7529 294.669L85.5796 294.606Z" fill="#FEA7DC"/>
<path d="M114.576 228.927C114.764 229.683 115.064 230.429 115.086 231.198C115.099 231.572 114.589 232 114.317 232.402C114.142 232.262 113.884 232.162 113.809 231.983C113.721 231.76 113.716 231.454 113.799 231.219C114.075 230.457 114.406 229.712 114.719 228.96C114.717 228.956 114.576 228.927 114.576 228.927Z" fill="#FEA7DC"/>
<path d="M121.598 227.116C121.617 225.898 121.638 224.674 121.652 223.454C121.646 223.453 121.5 223.414 121.498 223.41C121.839 224.612 122.216 225.812 121.453 227.08L121.598 227.116Z" fill="#FEA7DC"/>
<path d="M121.453 227.08C121.487 227.486 121.517 227.893 121.55 228.298C121.512 228.134 121.428 227.973 121.44 227.809C121.459 227.577 121.546 227.348 121.598 227.116L121.453 227.08Z" fill="#FEA7DC"/>
<path d="M85.749 294.671C85.6972 293.998 85.9334 293.636 86.4578 293.585C86.4135 293.796 86.4317 294.064 86.3018 294.2C86.1236 294.386 85.8275 294.472 85.5832 294.604C85.5795 294.606 85.749 294.671 85.749 294.671Z" fill="#FEA7DC"/>
<path d="M216.128 3.00455C216.128 3.00455 216.003 2.97126 216.007 2.96935L216.128 3.00455Z" fill="#FEA7DC"/>
<path d="M187.011 106.405L187.144 106.438C187.141 106.44 187.011 106.405 187.011 106.405Z" fill="#FEA7DC"/>
<path d="M12.239 202.826C11.9675 203.578 11.6997 204.328 11.4266 205.076L11.5893 205.12C11.8516 204.368 12.114 203.617 12.3783 202.86C12.3746 202.862 12.239 202.826 12.239 202.826Z" fill="#FEA7DC"/>
<path d="M10.7616 207.323C10.6008 206.467 10.8827 205.735 11.5893 205.12L11.4266 205.076C11.1626 205.816 10.9025 206.553 10.6386 207.293L10.7616 207.323Z" fill="#FEA7DC"/>
<path d="M10.6386 207.293C10.3556 208.076 10.0742 208.863 9.79127 209.647L9.93408 209.688C10.2099 208.899 10.482 208.113 10.7578 207.325C10.7615 207.323 10.6386 207.293 10.6386 207.293Z" fill="#FEA7DC"/>
<path d="M190.542 120.826L190.524 121.339L190.733 120.871L190.542 120.826Z" fill="#FEA7DC"/>
<path d="M23.5366 220.542C23.8152 219.795 24.0956 219.051 24.3742 218.304L24.2344 218.296C23.9576 219.046 23.6771 219.799 23.402 220.553L23.5366 220.542Z" fill="#FEA7DC"/>
<path d="M22.6617 222.834C22.9552 222.07 23.2449 221.309 23.5384 220.546L23.402 220.553C23.6609 221.05 23.9142 221.545 24.173 222.043L24.2526 221.89C23.687 222.185 23.1177 222.481 22.5538 222.779L22.6617 222.834Z" fill="#FEA7DC"/>
<path d="M176.686 238.231L176.713 238.148C176.709 238.15 176.686 238.231 176.686 238.231Z" fill="#FEA7DC"/>
<path d="M205.877 168.766C203.725 170.263 201.327 170.768 198.819 170.785C198.568 170.787 198.334 170.597 198.091 170.498C198.321 170.07 198.452 169.417 198.805 169.251C201.151 168.136 203.527 167.838 205.84 168.918C205.838 168.915 205.877 168.766 205.877 168.766Z" fill="#FEA7DC"/>
</svg>
