<svg width="317" height="185" viewBox="0 0 317 185" fill="none" xmlns="http://www.w3.org/2000/svg">
<path fill-rule="evenodd" clip-rule="evenodd" d="M228.562 175.651C256.865 176.317 285.788 174.986 312.85 184.429C314.463 184.986 316.237 184.175 316.82 182.601C317.391 181.027 316.56 179.296 314.947 178.727C287.252 169.065 257.671 170.276 228.711 169.598C226.999 169.55 225.572 170.881 225.535 172.552C225.485 174.223 226.85 175.603 228.562 175.651Z" fill="#FEA7DC"/>
<path fill-rule="evenodd" clip-rule="evenodd" d="M226.018 135.557C234.84 127.636 244.469 121.703 256.108 118.762C257.77 118.343 258.763 116.69 258.341 115.073C257.907 113.455 256.207 112.483 254.557 112.902C241.901 116.098 231.416 122.493 221.824 131.1C220.559 132.231 220.472 134.147 221.638 135.378C222.792 136.606 224.765 136.687 226.018 135.557Z" fill="#FEA7DC"/>
<path fill-rule="evenodd" clip-rule="evenodd" d="M201.476 49.0843C205.521 35.5547 213.487 24.9708 225.696 17.3276C227.136 16.4256 227.558 14.5515 226.627 13.1458C225.709 11.7402 223.785 11.3309 222.346 12.2329C208.834 20.6958 199.999 32.4081 195.52 47.3881C195.036 48.9911 195.992 50.674 197.629 51.1414C199.28 51.6099 201.004 50.6873 201.476 49.0843Z" fill="#FEA7DC"/>
<path fill-rule="evenodd" clip-rule="evenodd" d="M62.071 30.7229C59.6639 33.487 57.5048 36.4653 55.6684 39.6361C54.8495 41.0478 53.4102 44.0479 53.1868 46.6207C52.9387 49.3617 53.894 51.6742 56.3508 52.8922C59.6141 54.5073 62.2199 54.339 64.23 53.3619C66.1657 52.4236 67.6794 50.5797 68.6348 48.1074C70.4588 43.3821 70.1858 36.1602 69.2303 32.039C71.7988 29.4529 74.6154 27.1077 77.6306 25.0229C100.089 9.49562 133.033 15.2211 158.382 38.4375C167.254 46.5662 171.522 63.6371 173.743 82.0556C177.205 110.734 175.232 142.764 174.959 152.148C174.897 154.465 175.121 155.841 175.245 156.116C175.828 157.467 176.858 157.818 177.577 157.951C178.62 158.133 179.451 157.939 180.121 157.6C181.027 157.135 181.771 156.317 182.119 155.054C182.305 154.356 182.354 153.386 182.33 152.35C182.305 151.632 182.156 150.848 182.305 150.333C183.273 147.038 184.439 143.82 185.58 140.579C189.39 129.684 194.316 119.474 199.788 109.276C217.171 76.8726 233.984 42.635 262.485 17.9476C263.763 16.8398 263.888 14.9244 262.746 13.675C261.617 12.4255 259.656 12.3117 258.366 13.4207C229.294 38.5961 212.022 73.4233 194.291 106.468C189.638 115.143 185.369 123.83 181.821 132.916C182.181 116.843 182.044 94.5937 179.029 74.9076C176.349 57.3996 171.249 41.9268 162.626 34.0245C134.856 8.59122 98.6374 3.07407 74.0447 20.0845C71.4142 21.9054 68.9079 23.9079 66.5751 26.0799C53.708 3.40947 26.1621 -5.67693 1.81757 5.16614C0.254161 5.85988 -0.428268 7.65658 0.278989 9.17601C0.998655 10.6954 2.83498 11.3662 4.39839 10.6725C26.3358 0.902081 51.214 9.62154 62.071 30.7229ZM63.8701 38.3128C62.8651 39.6979 61.9345 41.1338 61.0659 42.6181C60.6068 43.4148 59.8127 44.9463 59.4776 46.4452C59.4032 46.7963 59.3909 47.3459 59.3909 47.6002C60.247 48.0118 60.9169 48.2104 61.4629 47.9428C62.1453 47.6135 62.4929 46.8386 62.8279 45.973C63.6716 43.801 63.9446 40.9219 63.8701 38.3128Z" fill="#FEA7DC"/>
</svg>
