<svg width="484" height="342" viewBox="0 0 484 342" fill="none" xmlns="http://www.w3.org/2000/svg">
<path d="M330.12 220.407C332.741 220.863 335.369 221.321 337.989 221.777L337.9 221.624C335.115 222.977 332.451 224.712 329.531 225.626C316.415 229.753 303.414 234.253 289.998 237.413C280.081 239.745 270.464 243.136 261.099 247.417C251.413 251.846 241.367 255.445 231.488 259.418C228.19 260.742 224.871 262.008 221.63 263.449C220.441 263.973 218.788 264.731 218.473 265.737C216.723 271.308 212.186 271.311 207.756 271.873C205.129 272.202 202.546 272.917 199.955 273.499C196.32 274.321 193.458 276.101 191.776 279.708C191.261 280.82 190.094 281.865 188.976 282.424C184.503 284.652 179.767 285.696 174.801 284.727C172.203 284.221 169.696 283.066 167.095 282.867C162.883 282.553 160.783 280.199 159.561 276.476C158.965 274.659 157.748 273.203 155.708 273.435C151.878 273.863 149.967 271.755 148.822 268.538C148.081 266.443 147.277 264.322 146.931 262.137C146.099 256.949 147.415 252.218 151.258 248.614C155.487 244.649 159.899 240.868 164.447 237.287C172.154 231.218 179.918 225.219 187.872 219.499C191.457 216.925 195.559 215.1 199.428 212.935L199.347 212.822C201.268 215.055 203.704 214.54 206.187 214.249C208.182 214.01 209.054 215.439 209.485 217.191L209.6 217.14C208.503 217.942 207.397 218.75 206.301 219.551L206.552 219.361C205.455 220.162 204.357 220.972 203.253 221.772L203.486 221.601C202.389 222.403 201.292 223.205 200.196 224.006L200.429 223.836C199.332 224.637 198.226 225.445 197.129 226.247L197.381 226.056C196.275 226.864 195.178 227.673 194.073 228.474L194.282 228.269C193.193 229.064 192.105 229.859 191.017 230.654L191.138 230.566C187.021 233.415 186.077 237.636 186.11 242.308C186.121 244.354 187.23 245.583 189.372 245.569C190.248 245.564 191.119 245.358 191.992 245.23C193.965 244.941 195.516 245.609 196.161 247.542C197.321 251.04 199.655 252.561 203.202 252.095C207.123 251.575 211.076 251.136 214.932 250.266C219.232 249.29 223.487 248.029 227.668 246.61C241.898 241.808 256.243 237.379 270.343 232.163C282.427 227.691 294.863 224.75 307.846 224.96C309.358 226.571 311.085 226.859 313.03 225.802L313.11 225.915C311.314 225.631 309.517 225.355 307.721 225.071C314.217 219.052 322.538 216.939 330.641 215.038C338.42 213.215 346.11 211.378 353.652 208.668C358.632 206.877 363.95 206.051 369.129 204.817C374.3 203.581 379.631 202.819 384.633 201.078C396.574 196.922 408.925 196.475 421.303 195.769C428.733 195.347 435.239 197.846 441.485 201.29C445.6 203.563 447.644 207.567 448.72 212.053C448.921 212.88 448.945 213.995 448.545 214.679C446.368 218.383 445.513 221.962 448.081 225.927C448.502 226.574 447.644 228.626 446.815 229.463C441.752 234.581 435.915 238.601 429.361 241.556C427.242 242.508 425.956 241.566 425.307 238.437C424.894 236.434 424.061 235.751 422.877 236.477C420.984 237.635 419.143 238.894 417.219 240.009C415.027 241.273 412.665 243.914 410.223 241.604C408.309 239.797 410.622 237.55 411.408 235.571C411.74 234.746 412.073 233.913 412.369 233.074C412.828 231.752 411.718 230.006 410.46 230.064C409.578 230.106 408.696 230.379 407.832 230.308C398.265 229.596 389.403 231.621 381.404 237.188C381.103 237.401 380.402 237.411 380.131 237.205C379.312 236.57 379.287 235.648 380.133 234.937C382.508 232.924 385.078 231.111 387.335 228.979C390.24 226.233 392.998 223.31 395.673 220.335C396.536 219.38 396.963 218.014 397.56 216.823C398.302 215.346 397.11 213.032 395.547 212.485C391.615 211.106 387.524 211.074 383.83 212.634C376.368 215.789 368.371 216.381 360.678 218.379C359 218.817 358.355 218.195 357.863 215.222C357.612 213.677 356.994 212.559 355.508 212.896C349.031 214.344 342.557 215.869 336.144 217.621C334.057 218.192 332.172 219.537 330.192 220.527C328.291 221.121 326.392 221.707 324.491 222.301L324.398 222.17C326.313 221.586 328.213 220.992 330.12 220.407ZM186.357 227.19C185.331 227.934 184.311 228.679 183.285 229.422L183.204 229.309C184.224 228.564 185.244 227.812 186.263 227.067L186.357 227.19Z" fill="#FEA7DC"/>
<path d="M471.102 330.665C472.195 327.078 474.704 324.561 477.358 322.138C483.305 316.693 488.538 310.623 493.046 303.911C494.892 301.164 495.853 298.389 494.039 295.163C493.768 294.679 494.404 293.525 494.833 292.808C495.577 291.555 495.986 289.832 494.244 289.966C486.743 290.545 479.248 290.663 471.737 290.84C462.002 291.065 452.353 292.545 442.814 294.614C440.218 295.18 437.667 296.031 435.045 296.377C414.77 299.025 395.366 305.456 375.625 310.435C366.617 312.706 357.577 314.887 348.557 317.133C344.622 318.115 341.022 319.613 338.441 323.082C336.738 325.366 334.1 326.142 331.418 326.439C327.395 326.889 323.578 327.843 320.212 330.243C319.85 330.501 319.48 330.811 319.067 330.921C315.248 331.936 311.102 332.297 307.67 334.069C304.072 335.931 300.36 337.226 296.59 338.457C293.551 339.453 290.501 337.322 289.88 333.835C289.65 332.532 289.858 331.155 289.723 329.829C289.412 326.87 288.416 326.254 285.26 326.937C282.167 327.607 281.593 327.491 280.937 325.95C280.052 323.9 279.054 321.887 278.361 319.777C276.368 313.675 277.672 308.317 282.295 303.846C283.577 302.611 284.871 301.348 286.314 300.332C295.754 293.673 305.233 287.05 314.758 280.52C315.194 280.221 316.269 280.773 316.979 281.089C317.135 281.161 317.066 281.913 316.976 282.33C316.883 282.763 316.562 283.143 316.485 283.57C316.119 285.547 316.742 286.489 318.073 286.026C320.148 285.298 322.173 284.408 324.291 283.881C324.965 283.712 325.96 284.337 326.641 284.833C327.595 285.52 327.61 287.675 326.85 288.562C322.713 293.413 317.444 296.654 311.859 299.45C311.435 298.217 311.145 296.912 310.546 295.773C310.01 294.761 309.122 294.74 308.609 295.606C308.473 295.83 308.779 296.482 309.054 296.758C309.995 297.666 311.01 298.495 311.996 299.357C311.664 300.182 311.168 300.989 311.022 301.844C310.648 303.959 311.936 305.827 313.604 305.581C315.774 305.254 317.909 304.714 320.067 304.269C321.485 303.975 322.713 304.244 323.311 305.714C324.106 307.664 325.578 308.35 327.508 308.093C331.019 307.613 334.54 307.213 338.001 306.479C350.133 303.913 362.205 301.105 374.348 298.61C386.916 296.03 399.543 293.745 412.129 291.237C415.15 290.64 418.122 289.772 421.08 288.903C425.324 287.656 429.462 285.897 433.776 285.063C444.638 282.961 455.565 281.156 466.483 279.411C477.463 277.653 488.541 278.109 499.581 278.382C508.11 278.594 516.116 281.136 523.425 285.678C532.546 291.34 536.722 299.57 536.124 310.427C535.832 315.648 534.068 319.897 529.86 323.172C527.063 325.348 524.662 328.044 521.955 330.366C520.983 331.196 519.701 331.782 518.464 332.129C517.722 332.34 516.585 332.124 516 331.644C515.416 331.163 514.863 329.978 515.053 329.322C516.28 325.047 517.71 320.836 519.068 316.598L519.159 316.736C516.761 317.959 514.885 319.714 513.243 321.901C510.591 325.435 507.736 328.813 504.849 332.155C504.006 333.129 502.787 333.788 501.719 334.555C500.494 335.444 497.812 335.086 496.902 333.889C496.376 333.194 495.954 332.416 495.479 331.683C491.75 325.863 489.899 325.215 483.655 327.665C482.02 328.31 480.502 329.406 478.823 329.766C476.283 330.31 473.652 330.384 471.058 330.658C471.071 330.621 471.102 330.665 471.102 330.665Z" fill="#FEA7DC"/>
<path d="M115.373 182.835C117.11 184.374 119.124 184.91 121.437 184.73C125.907 184.391 129.887 182.569 133.976 180.918C143.344 177.14 152.799 173.568 162.248 169.995C163.456 169.536 164.834 169.536 166.131 169.33L166.052 169.209C165.249 170.267 164.313 171.249 163.698 172.406C163.357 173.053 163.224 174.296 163.6 174.704C164.044 175.201 165.248 175.427 165.933 175.191C168.833 174.212 171.701 173.096 174.516 171.887C178.156 170.333 181.701 168.564 185.351 167.043C189.824 165.185 194.392 163.589 199.342 163.806L199.247 163.644C196.991 166.564 194.126 168.645 190.623 169.642C184.19 171.475 178.216 174.37 172.272 177.408C169.134 179.013 165.742 180.12 162.413 181.308C159.909 182.197 157.151 182.49 154.813 183.669C138.561 191.876 121.089 197.232 104.982 205.763C102.25 207.21 99.349 208.575 97.0844 210.614C94.6607 212.789 92.1847 214.254 89.0151 214.835C85.36 215.499 82.3986 217.564 80.5134 220.783C78.1713 224.8 74.7972 227.53 70.9875 229.944C68.7402 231.361 66.685 233.094 64.6212 234.788C61.8369 237.074 59.3545 239.564 58.6692 243.41C58.1696 246.206 56.2126 248.134 54.1426 249.865C48.9098 254.245 42.8579 256.919 36.3094 258.479C29.5793 260.078 23.1173 258.713 16.8387 256.313C15.111 255.654 14.3496 253.826 13.9369 252.054C12.9843 247.935 10.9128 244.706 7.27764 242.48C5.78177 241.566 4.46698 240.334 3.13493 239.161C2.47511 238.584 1.98177 237.825 1.41441 237.146C0.516292 236.067 0.446247 233.263 1.47441 232.088C3.22995 230.09 4.87525 227.881 6.9715 226.316C18.7556 217.499 29.2722 207.157 40.5893 197.793C48.7929 191.01 57.4373 184.699 67.3663 180.557L67.3047 180.47C67.0513 182.264 66.804 184.068 66.5506 185.863C65.5142 186.62 64.4853 187.379 63.4489 188.136C62.4297 188.881 61.4103 189.626 60.3986 190.372C59.3794 191.116 58.3604 191.861 57.3487 192.607L57.2618 192.485C58.281 191.74 59.3002 190.996 60.3181 190.258C61.3373 189.513 62.3565 188.769 63.3744 188.031C64.4108 187.274 65.4474 186.517 66.4826 185.767C70.7714 183.778 74.2948 180.972 76.1971 176.429L76.0193 176.585C77.0989 175.796 78.1798 174.999 79.2594 174.21L79.078 174.343C80.1577 173.554 81.2373 172.765 82.3169 171.976L82.091 172.101C83.1879 171.3 84.285 170.498 85.3733 169.703L85.1401 169.873C86.237 169.072 87.3253 168.276 88.4148 167.474L88.2073 167.625C89.2956 166.83 90.3925 166.028 91.4808 165.233L91.2475 165.403C92.3444 164.602 93.4424 163.793 94.5467 162.992L94.2966 163.175C95.4021 162.367 96.4987 161.566 97.6043 160.758L97.3762 160.944C99.869 159.938 102.004 158.417 103.716 156.312L103.476 156.473C104.573 155.672 105.661 154.876 106.758 154.075L106.581 154.185C109.497 154.458 112.319 154.144 114.976 152.786L114.861 152.837C115.796 152.981 116.738 153.134 117.674 153.278L117.536 153.148C115.973 157.006 113.315 159.876 109.952 162.253C105.594 165.326 101.409 168.642 97.1005 171.784C90.5931 176.513 84.7151 181.915 79.5069 188.066L79.6437 187.927C77.6227 189.45 75.5956 190.964 73.5746 192.488L73.4741 192.356C75.0035 193.954 76.4876 195.599 78.0811 197.13C81.1629 200.091 83.8712 200.57 87.6655 198.486C92.7052 195.717 97.5924 192.669 102.61 189.85C106.848 187.468 111.168 185.238 115.463 182.934C115.434 182.922 115.373 182.835 115.373 182.835ZM44.3742 201.91C42.2301 202.41 40.4541 203.457 39.596 205.647C39.4916 205.915 39.8109 206.669 40.0186 206.703C42.4229 207.132 45.9252 204.407 45.379 202.567C45.2882 202.282 44.7405 202.139 44.3742 201.91Z" fill="#FEA7DC"/>
<path d="M218.034 98.6104C219.516 95.9042 220.728 92.9922 222.555 90.5504C224.936 87.3731 227.526 84.2219 230.533 81.6863C236.892 76.3237 240.823 69.649 242.75 61.623C244.199 60.0609 245.675 58.5185 247.069 56.9167C247.295 56.6525 247.379 55.9487 247.199 55.6958C246.603 54.8662 245.604 54.8274 245.152 55.7801C244.239 57.6992 243.609 59.7567 242.865 61.7573C240.51 62.9023 238.172 64.0811 235.794 65.1761C234.091 65.9641 232.44 64.6394 232.446 62.542C232.449 62.1028 232.461 61.6498 232.575 61.2286C233.328 58.3732 232.767 56.1606 230.115 54.4419C229.178 53.8347 228.876 52.2273 228.287 51.0748C229.323 50.3174 230.351 49.5662 231.387 48.8088C232.555 48.0881 232.728 47.6303 231.961 47.7603C231.742 47.7943 231.631 48.5245 231.474 48.9309C230.438 49.6883 229.409 50.4471 228.373 51.197C227.135 51.1811 225.862 51.3292 224.657 51.1104C223.407 50.8844 222.995 49.1589 223.912 48.0581C224.723 47.0944 225.715 46.2835 226.625 45.413L226.512 45.5025C226.67 44.5254 226.829 43.5484 226.988 42.5714L227.067 42.6923C228.013 40.1923 229.037 37.728 229.868 35.1938C230.437 33.4658 228.832 31.1146 227.257 31.2986C216.783 32.5141 206.181 32.783 196.224 37.1449C190.16 39.8013 183.825 41.8276 177.607 44.1196C176.359 44.5806 175.12 45.089 173.828 45.3575C161.645 47.9078 150.093 52.2498 139.018 57.9652C120.837 63.9849 104.583 73.9817 88.008 83.3323C78.3707 88.7721 68.5571 93.89 58.7611 99.0417C57.6785 99.6142 56.1823 99.7801 54.966 99.5827C53.0809 99.2843 52.193 97.5819 51.3445 96.0094L51.4434 96.1488C50.7036 94.5167 49.9982 92.7669 50.8535 91.0621C51.427 89.9209 52.3598 88.7224 53.4448 88.1349C59.2289 85.001 64.7409 81.1517 71.8696 81.692C73.9002 81.8442 76.1819 80.8724 78.1175 79.9216C86.07 76.0443 93.8861 71.8825 101.839 68.0052C109.79 64.1354 117.774 60.2941 125.888 56.7824C144.564 48.6986 163.613 41.601 182.912 35.215C190.465 32.7155 198.145 30.7996 205.988 29.3343C212.457 28.1244 218.769 25.9556 225.105 24.0682C226.504 23.6551 226.807 22.3004 226.71 20.7882C226.666 20.1252 227.27 18.9814 227.826 18.794C230.298 17.9611 233.073 18.2186 235.322 16.4624C236.228 15.7534 236.442 13.4508 235.386 12.8782C233.461 11.8405 231.457 10.9598 229.508 9.97992C227.959 9.20393 227.611 7.78206 228.224 5.32049C228.579 3.88167 229.43 2.81642 230.875 2.87354C233.506 2.98442 236.122 3.37819 238.742 3.64931C239.488 4.81958 239.962 4.99678 239.792 4.25956C239.733 4.01091 239.033 3.92026 238.618 3.75272C240.006 1.11603 242.087 -0.219967 245.079 0.250261C246.823 0.525713 248.544 0.897678 250.284 1.19568C253.083 1.6809 255.162 2.99035 256.13 5.88608C256.69 7.55058 257.453 9.17873 258.351 10.6822C259.591 12.7503 261.383 13.8589 263.905 13.0882C266.035 12.4465 268.179 11.8071 270.257 13.2092C272.665 14.8344 273.536 17.3053 273.758 20.0644C273.979 22.7309 274.348 25.4289 274.192 28.0802C274.01 31.1672 273.806 34.3971 272.777 37.2618C268.832 48.2926 263.13 58.3285 255.171 66.9798C251.862 70.5772 248.598 74.2282 245.413 77.9463C242.49 81.3674 239.283 84.4336 235.227 86.3902C231.172 88.3469 227.902 91.2797 224.611 94.3014C222.698 96.0505 220.153 97.0953 217.892 98.4561L218.034 98.6104Z" fill="#FEA7DC"/>
<path d="M281.535 171.712C276.009 172.928 270.448 173.985 264.988 175.451C262.966 175.995 261.067 177.33 259.342 178.623C255.842 181.241 252.526 184.127 249.043 186.779C248.514 187.179 247.484 186.911 246.693 186.953C246.735 186.18 246.474 185.112 246.878 184.692C248.679 182.786 250.723 181.119 252.572 179.252C253.319 178.494 253.107 177.595 252.234 177.114C251.891 176.927 251.397 176.924 250.979 176.965C250.113 177.048 249.256 177.217 248.396 177.355L248.14 176.959C249.155 174.416 250.747 172.298 252.891 170.626C256.038 168.167 259.173 165.69 262.407 163.353C268.255 159.127 272.79 153.699 276.697 147.684C276.91 147.356 276.979 146.604 276.776 146.401C276.199 145.829 275.451 145.044 274.766 145.041C264.962 145.038 255.561 147.709 246.226 150.258C235.6 153.162 224.864 155.754 214.626 160.062C209.764 162.112 204.653 163.727 199.244 163.659C199.244 163.659 199.341 163.814 199.34 163.821C201.681 160.938 204.829 159.413 208.254 158.334C211.664 157.26 214.826 155.737 217.257 152.953L217.09 153.049C219.073 152.415 221.048 151.786 223.031 151.152L222.82 151.326C222.978 150.349 223.137 149.372 223.296 148.395L223.402 148.582C225.31 146.631 227.533 145.226 230.167 144.519C243.409 140.93 256.626 137.213 269.91 133.785C280.23 131.125 290.795 129.863 301.408 129.387C309.804 129.015 316.949 131.987 322.459 138.652C324.547 141.174 325.843 143.737 325.36 147.184C325.12 148.896 325.247 150.83 325.806 152.456C327.497 157.366 325.534 161.206 322.616 164.789C320.647 167.208 318.497 169.482 316.401 171.795C313.664 174.822 310.516 177.235 306.526 178.323C303.014 179.28 300.14 181.228 297.533 183.782C293.387 187.845 288.833 191.418 283.595 193.954C283.074 194.209 282.104 193.62 281.415 193.269C281.261 193.19 281.273 192.359 281.482 192.061C283.732 188.793 286.053 185.567 288.29 182.289C288.449 182.06 288.224 181.43 287.995 181.107C287.772 180.793 287.245 180.384 286.988 180.466C285.355 181.003 283.579 181.393 282.184 182.339C275.201 187.091 268.341 192.026 261.394 196.837C259.575 198.1 257.655 199.239 255.671 200.205C255.158 200.453 254.216 199.884 253.512 199.577C253.434 199.541 253.509 198.612 253.764 198.399C257.165 195.549 260.569 192.684 264.064 189.958C270.783 184.723 276.787 178.825 281.426 171.586C281.428 171.571 281.535 171.712 281.535 171.712Z" fill="#FEA7DC"/>
<path d="M248.391 177.339C242.316 183.434 239.119 191.123 237.05 199.134C235.383 199.789 234.223 200.418 232.983 200.695C228.402 201.718 225.197 204.391 222.95 208.523C222.138 210.012 220.792 211.22 219.633 212.498C218.928 213.278 216.466 212.778 216.215 211.75C215.8 210.086 215.617 208.351 215.353 206.65C215.106 205.075 213.931 204.344 212.595 204.975C210.228 206.096 207.873 207.241 205.511 208.377L205.561 208.446C206.622 205.425 208.64 203.122 211.127 201.266C216.385 197.337 221.655 193.433 227.001 189.618C231.978 186.068 236.98 182.545 242.12 179.252C243.896 178.113 246.132 177.705 248.148 176.96C248.136 176.943 248.391 177.339 248.391 177.339ZM229.558 193.281C227.567 194.2 225.36 194.806 224.205 196.948C224.063 197.218 224.203 197.85 224.434 198.073C224.678 198.305 225.259 198.43 225.576 198.304C227.874 197.374 228.634 195.222 229.46 193.134L229.558 193.281Z" fill="#FEA7DC"/>
<path d="M238.928 209.042C239.759 209.409 240.243 209.472 240.449 209.752C240.647 210.031 240.671 210.544 240.581 210.908C240.477 211.315 240.251 211.772 239.936 212.022C228.231 221.338 216.667 230.861 203.608 238.245C202.67 238.772 201.827 238.341 201.556 237.333C201.46 236.986 201.688 236.383 201.974 236.121C203.264 234.926 204.563 233.725 205.973 232.681C214.843 226.153 223.727 219.634 232.639 213.174C234.737 211.648 236.979 210.307 238.928 209.042Z" fill="#FEA7DC"/>
<path d="M79.6078 171.598C80.918 168.17 83.3323 165.63 85.8911 163.091C94.4607 154.616 104.31 147.915 114.361 141.478C114.59 141.33 115.232 141.55 115.472 141.805C115.699 142.05 115.846 142.737 115.678 142.926C114.534 144.252 113.392 145.617 112.073 146.753C109.666 148.823 107.749 151.212 106.559 154.181L106.736 154.071C105.639 154.873 104.551 155.668 103.454 156.47L103.694 156.308C100.829 156.792 98.7437 158.382 97.3539 160.941L97.5823 160.754C96.4767 161.562 95.3798 162.364 94.2743 163.172L94.5247 162.989C93.4278 163.79 92.3299 164.599 91.2256 165.4L91.4588 165.229C90.3705 166.025 89.2736 166.826 88.1853 167.621L88.3924 167.47C87.3029 168.273 86.2072 169.067 85.1177 169.87L85.351 169.699C84.2541 170.501 83.1573 171.302 82.069 172.098L82.2949 171.972C81.3616 171.813 80.4282 171.654 79.4936 171.502L79.6078 171.598Z" fill="#FEA7DC"/>
<path d="M160.809 119.312C161.747 115.314 163.236 111.676 166.662 109.092C171.963 105.093 177.184 100.973 182.473 96.9486C182.742 96.7454 183.544 96.7753 183.699 96.9933C184.172 97.641 184.9 98.6 184.705 99.1393C184.121 100.772 183.512 102.694 182.277 103.736C175.501 109.463 168.974 115.577 160.702 119.171L160.809 119.312Z" fill="#FEA7DC"/>
<path d="M160.708 119.18C159.524 122.066 157.828 124.637 155.311 126.45C147.922 131.776 141.114 137.984 132.811 141.958L132.885 142.063C137.275 131.436 145.143 124.699 155.769 121.047C157.446 120.471 159.124 119.887 160.801 119.311C160.809 119.312 160.708 119.18 160.708 119.18Z" fill="#FEA7DC"/>
<path d="M163.274 103.281C162.138 105.126 161.368 107.43 159.798 108.749C152.121 115.155 144.776 122.086 135.393 126.008L135.485 126.147C136.593 123.21 138.368 120.714 140.809 118.811C148.008 113.199 154.951 107.191 163.368 103.405C163.361 103.403 163.274 103.281 163.274 103.281Z" fill="#FEA7DC"/>
<path d="M79.4785 188.054C82.6006 187.766 85.3179 186.549 87.8621 184.663C89.5919 183.386 91.5632 182.402 93.5299 181.541C94.062 181.311 95.0284 181.923 95.7039 182.311C95.8993 182.42 95.9814 183.228 95.7966 183.475C94.2377 185.575 92.7868 187.808 90.9518 189.639C87.1808 193.408 82.9201 194.661 79.6069 187.921C79.6155 187.914 79.4785 188.054 79.4785 188.054Z" fill="#FEA7DC"/>
<path d="M149.4 155.59C148.598 158.183 147.714 160.77 145.363 162.356C142.055 164.588 138.668 166.692 135.282 168.796C135.011 168.96 134.137 168.718 134.13 168.624C134.08 167.852 133.849 166.742 134.257 166.338C138.734 161.927 143.835 158.405 149.5 155.722L149.4 155.59Z" fill="#FEA7DC"/>
<path d="M129.704 144.216C126.35 148.184 123.083 152.267 117.522 153.138L117.661 153.268C116.879 152.177 116.105 151.08 115.323 149.988L115.387 150.068C117.335 148.286 119.201 146.406 121.25 144.756C123.947 142.587 126.861 142.551 129.792 144.33L129.704 144.216Z" fill="#FEA7DC"/>
<path d="M209.476 217.197C210.241 219.427 210.077 221.607 208.348 223.255C204.214 227.197 199.818 230.741 193.76 231.015L193.822 231.148C193.969 230.193 194.124 229.238 194.27 228.29L194.062 228.495C195.168 227.687 196.264 226.886 197.37 226.078C197.37 226.078 197.118 226.268 197.12 226.261C198.216 225.459 199.322 224.651 200.419 223.85L200.186 224.02C201.282 223.219 202.379 222.417 203.476 221.615L203.243 221.786C204.34 220.984 205.438 220.175 206.543 219.375C206.543 219.375 206.291 219.565 206.292 219.558C207.389 218.756 208.494 217.948 209.591 217.147L209.476 217.197Z" fill="#FEA7DC"/>
<path d="M130.604 155.269C128.884 160.706 124.54 163.503 119.976 166.064C119.062 166.579 118.242 166.338 117.847 165.44C117.714 165.133 117.874 164.519 118.111 164.234C121.534 160.169 125.826 157.363 130.69 155.399L130.604 155.269Z" fill="#FEA7DC"/>
<path d="M453.246 341.435C457.251 336.932 463.075 335.71 468.05 332.962L467.963 332.84C465.15 339.48 460.126 342.151 453.16 341.313L453.246 341.435Z" fill="#FEA7DC"/>
<path d="M217.562 84.8722C218.564 78.8869 222.219 75.1758 227.565 72.9119L227.46 72.7636C226.707 78.9514 222.776 82.4402 217.488 84.7676C217.489 84.7601 217.562 84.8722 217.562 84.8722Z" fill="#FEA7DC"/>
<path d="M42.2616 82.1383C43.0615 79.9308 44.6889 78.7217 46.9235 78.3208C47.2373 78.2637 47.7566 78.5331 47.9463 78.8185C48.1372 79.0963 48.2227 79.6965 48.0502 79.9616C46.8418 81.8251 45.2862 83.2001 42.9184 83.1089C42.6848 83.0941 42.486 82.491 42.2616 82.1383Z" fill="#FEA7DC"/>
<path d="M195.314 156.595C195.993 157.099 196.467 157.276 196.591 157.59C196.715 157.903 196.614 158.619 196.408 158.717C194.89 159.442 193.357 160.166 191.76 160.67C190.709 161.001 190.056 160.378 190.172 159.34C190.208 158.976 190.54 158.474 190.867 158.334C192.392 157.664 193.975 157.103 195.314 156.595Z" fill="#FEA7DC"/>
<path d="M187.36 108.904C188.027 108.596 188.681 108.085 189.366 108.034C190.609 107.928 190.32 109.894 188.828 110.508C188.346 110.707 187.579 110.182 186.94 109.993C187.084 109.623 187.226 109.26 187.36 108.904Z" fill="#FEA7DC"/>
<path d="M135.385 126.007C134.064 127.814 132.73 129.611 130.372 130.069C130.065 130.127 129.521 129.822 129.37 129.536C129.212 129.24 129.265 128.632 129.482 128.374C131.047 126.475 133.239 126.237 135.477 126.146L135.385 126.007Z" fill="#FEA7DC"/>
<path d="M217.244 152.943C215.477 152.664 213.72 152.379 211.953 152.1L212.038 152.237C215.111 148.732 219.079 148.111 223.38 148.578C223.38 148.578 223.281 148.392 223.274 148.391C223.115 149.368 222.956 150.345 222.799 151.315L223.01 151.141C221.026 151.775 219.052 152.404 217.069 153.038C217.083 153.04 217.244 152.943 217.244 152.943Z" fill="#FEA7DC"/>
<path d="M104.926 174.79C105.4 174.351 105.884 173.904 106.358 173.465C106.578 173.708 107.007 174.156 106.982 174.175C106.546 174.652 106.057 175.09 105.574 175.528C105.363 175.285 105.144 175.042 104.926 174.79Z" fill="#FEA7DC"/>
<path d="M207.955 107.565C207.851 107.178 207.567 106.723 207.679 106.41C207.804 106.06 208.299 105.592 208.6 105.61C209.798 105.689 210.02 106.381 209.147 107.304C208.917 107.552 208.363 107.493 207.955 107.565Z" fill="#FEA7DC"/>
<path d="M207.819 77.5513C207.526 77.3417 207.231 77.1395 206.937 76.9374C207.387 76.4165 207.803 75.8671 208.312 75.4096C208.374 75.3504 208.876 75.7789 209.17 75.981C208.719 76.5094 208.269 77.0304 207.819 77.5513Z" fill="#FEA7DC"/>
<path d="M315.698 110.81C315.485 111.138 315.317 111.658 315.036 111.744C314.789 111.812 314.184 111.413 314.149 111.16C314.106 110.86 314.509 110.493 314.723 110.158C315.037 110.378 315.368 110.594 315.698 110.81Z" fill="#FEA7DC"/>
<path d="M142.938 147.382L143.036 146.45L143.767 146.915L142.938 147.382Z" fill="#FEA7DC"/>
<path d="M337.989 221.777C338.355 221.543 338.711 221.316 339.076 221.082C338.689 221.266 338.295 221.441 337.907 221.625C337.9 221.624 337.989 221.777 337.989 221.777Z" fill="#FEA7DC"/>
<path d="M206.325 153.994C208.232 153.408 210.138 152.823 212.045 152.238L211.961 152.101C210.059 152.702 208.165 153.305 206.264 153.899L206.325 153.994Z" fill="#FEA7DC"/>
<path d="M205.053 11.8337C204.705 12.0549 204.357 12.2762 204.009 12.4974C204.388 12.3198 204.76 12.1409 205.139 11.9633L205.053 11.8337Z" fill="#FEA7DC"/>
<path d="M468.051 332.954C469.067 332.186 470.088 331.426 471.104 330.657L471.073 330.614C470.033 331.347 468.999 332.09 467.957 332.831L468.051 332.954Z" fill="#FEA7DC"/>
<path d="M332.773 269.945C331.752 270.698 330.74 271.443 329.72 272.196L329.794 272.3C330.821 271.557 331.839 270.82 332.865 270.076L332.773 269.945Z" fill="#FEA7DC"/>
<path d="M348.061 258.812C347.035 259.556 346.017 260.293 344.99 261.037L345.065 261.141C346.084 260.396 347.097 259.643 348.116 258.898L348.061 258.812Z" fill="#FEA7DC"/>
<path d="M348.125 258.892C349.144 258.147 350.163 257.402 351.182 256.657L351.12 256.57C350.101 257.315 349.082 258.06 348.063 258.805C348.061 258.812 348.125 258.892 348.125 258.892Z" fill="#FEA7DC"/>
<path d="M193.768 231.008C192.893 230.866 192.01 230.723 191.135 230.581L191.014 230.669C191.955 230.83 192.89 230.982 193.83 231.142L193.768 231.008Z" fill="#FEA7DC"/>
<path d="M351.181 256.665C352.2 255.92 353.219 255.175 354.238 254.431L354.176 254.343C353.157 255.088 352.138 255.833 351.119 256.578L351.181 256.665Z" fill="#FEA7DC"/>
<path d="M354.231 254.429C355.25 253.685 356.269 252.94 357.288 252.195L357.226 252.108C356.207 252.853 355.188 253.597 354.169 254.342C354.176 254.343 354.231 254.429 354.231 254.429Z" fill="#FEA7DC"/>
<path d="M357.288 252.195C358.307 251.45 359.334 250.706 360.353 249.962L360.291 249.875C359.272 250.619 358.252 251.372 357.225 252.115L357.288 252.195Z" fill="#FEA7DC"/>
<path d="M202.397 210.586C201.378 211.331 200.366 212.077 199.346 212.83L199.426 212.943C200.445 212.198 201.471 211.462 202.49 210.717L202.397 210.586Z" fill="#FEA7DC"/>
<path d="M205.507 208.361C204.473 209.103 203.431 209.844 202.397 210.586L202.49 210.717C203.511 209.957 204.534 209.19 205.556 208.43C205.548 208.429 205.507 208.361 205.507 208.361Z" fill="#FEA7DC"/>
<path d="M67.358 180.563C68.3821 179.834 69.4061 179.106 70.4315 178.37L70.382 178.254C69.3566 178.99 68.3225 179.732 67.296 180.476L67.358 180.563Z" fill="#FEA7DC"/>
<path d="M70.4315 178.37C71.4445 177.616 72.4649 176.864 73.4779 176.11L73.432 175.972C72.4178 176.733 71.3961 177.493 70.382 178.254L70.4315 178.37Z" fill="#FEA7DC"/>
<path d="M118.41 180.582C117.397 181.336 116.386 182.081 115.373 182.835L115.435 182.922C116.46 182.186 117.478 181.449 118.503 180.713L118.41 180.582Z" fill="#FEA7DC"/>
<path d="M73.4766 176.118C74.4896 175.364 75.5015 174.619 76.5145 173.865L76.4522 173.731C76.3058 174.68 76.1521 175.627 76.0046 176.582L76.1823 176.426C75.2701 176.278 74.349 176.136 73.4368 175.988L73.4766 176.118Z" fill="#FEA7DC"/>
<path d="M118.503 180.713C119.522 179.968 120.541 179.223 121.561 178.478L121.474 178.356C120.455 179.101 119.436 179.846 118.417 180.591C118.41 180.582 118.503 180.713 118.503 180.713Z" fill="#FEA7DC"/>
<path d="M76.5069 173.864C77.5359 173.105 78.5712 172.355 79.6002 171.597L79.4949 171.495C79.3485 172.443 79.2022 173.391 79.0485 174.338L79.2298 174.206C78.2965 174.046 77.3634 173.887 76.4301 173.728L76.5069 173.864Z" fill="#FEA7DC"/>
<path d="M124.527 176.106C123.507 176.85 122.487 177.603 121.475 178.349L121.562 178.471C122.581 177.726 123.607 176.99 124.626 176.245L124.527 176.106Z" fill="#FEA7DC"/>
<path d="M114.955 152.775C115.101 151.873 115.246 150.979 115.385 150.076L115.322 149.996C115.161 150.942 115 151.887 114.84 152.826L114.955 152.775Z" fill="#FEA7DC"/>
<path d="M206.264 153.899L206.326 153.986C206.325 153.994 206.264 153.899 206.264 153.899Z" fill="#FEA7DC"/>
<path d="M129.79 144.345C130.819 143.587 131.855 142.829 132.884 142.071L132.81 141.966C131.774 142.716 130.738 143.473 129.703 144.223C129.704 144.216 129.79 144.345 129.79 144.345Z" fill="#FEA7DC"/>
<path d="M257.448 154.14L257.374 154.035C257.367 154.027 257.448 154.14 257.448 154.14Z" fill="#FEA7DC"/>
<path d="M158.607 132.639C159.626 131.894 160.645 131.15 161.663 130.412L161.583 130.299C160.564 131.044 159.552 131.79 158.532 132.534L158.607 132.639Z" fill="#FEA7DC"/>
<path d="M164.64 128.065C163.621 128.809 162.602 129.554 161.583 130.299L161.663 130.412C162.682 129.668 163.702 128.923 164.721 128.178L164.64 128.065Z" fill="#FEA7DC"/>
<path d="M167.697 125.838C166.677 126.583 165.658 127.327 164.639 128.072C164.639 128.072 164.719 128.185 164.712 128.184C165.731 127.439 166.75 126.695 167.769 125.95C167.778 125.944 167.697 125.838 167.697 125.838Z" fill="#FEA7DC"/>
<path d="M170.754 123.603C169.735 124.348 168.716 125.093 167.697 125.838L167.771 125.942C168.79 125.198 169.809 124.453 170.828 123.708L170.754 123.603Z" fill="#FEA7DC"/>
<path d="M170.827 123.716C171.846 122.971 172.865 122.226 173.884 121.481L173.804 121.368C172.785 122.113 171.766 122.857 170.746 123.602C170.754 123.603 170.827 123.716 170.827 123.716Z" fill="#FEA7DC"/>
<path d="M163.361 103.403C164.38 102.659 165.399 101.914 166.418 101.169L166.332 101.047C165.313 101.792 164.293 102.537 163.274 103.281L163.361 103.403Z" fill="#FEA7DC"/>
<path d="M226.639 45.4228C226.786 44.5134 226.934 43.604 227.08 42.7021L227.001 42.5813C226.842 43.5584 226.684 44.5354 226.525 45.5124L226.639 45.4228Z" fill="#FEA7DC"/>
<path d="M214.506 87.0991C215.525 86.3543 216.544 85.6095 217.562 84.8722C217.562 84.8722 217.488 84.7676 217.489 84.7601C216.47 85.5049 215.451 86.2497 214.431 86.9945L214.506 87.0991Z" fill="#FEA7DC"/>
<path d="M214.431 86.9945C213.412 87.7393 212.385 88.4828 211.366 89.2275L211.446 89.3485C212.465 88.6037 213.485 87.8514 214.505 87.1066C214.506 87.0991 214.431 86.9945 214.431 86.9945Z" fill="#FEA7DC"/>
<path d="M211.366 89.2275C211.366 89.2275 211.453 89.3497 211.446 89.3485L211.366 89.2275Z" fill="#FEA7DC"/>
<path d="M204.827 96.3583L204.894 96.4617C204.901 96.4629 204.827 96.3583 204.827 96.3583Z" fill="#FEA7DC"/>
<path d="M169.518 98.9107C169.518 98.9107 169.425 98.7799 169.424 98.7874L169.518 98.9107Z" fill="#FEA7DC"/>
<path d="M166.426 101.17C167.454 100.419 168.49 99.6618 169.518 98.9107L169.424 98.7874C168.396 99.5385 167.36 100.296 166.332 101.047L166.426 101.17Z" fill="#FEA7DC"/>
<path d="M179.962 116.867C178.943 117.612 177.931 118.358 176.912 119.103L176.993 119.216C178.012 118.472 179.031 117.727 180.049 116.99C180.043 116.981 179.962 116.867 179.962 116.867Z" fill="#FEA7DC"/>
<path d="M173.884 121.481C174.921 120.724 175.95 119.965 176.985 119.215L176.905 119.102C175.868 119.859 174.839 120.618 173.804 121.368L173.884 121.481Z" fill="#FEA7DC"/>
</svg>
