<svg width="40" height="41" viewBox="0 0 40 41" fill="none" xmlns="http://www.w3.org/2000/svg">
<path d="M18.125 11.0927L19.5562 30.9052C19.6125 31.6865 22.0375 31.1802 21.9688 30.2552L20.5437 10.449C20.4875 9.66775 18.0625 10.174 18.1313 11.099L18.125 11.0927Z" fill="#FF6613"/>
<path d="M10.4231 22.7376C16.8419 21.8001 23.2794 20.9376 29.7231 20.1626C30.1419 20.1126 31.0294 19.8626 31.0981 19.3438C31.1669 18.8251 30.4044 18.7876 30.0544 18.8251C23.6106 19.6001 17.1794 20.4626 10.7544 21.4001C10.3356 21.4626 9.44811 21.6938 9.37936 22.2188C9.31061 22.7438 10.0731 22.7876 10.4231 22.7376Z" fill="#FF6613"/>
<circle cx="20" cy="20.6895" r="18.5" stroke="#FF6613" stroke-width="3"/>
</svg>
