<svg width="388" height="745" viewBox="0 0 388 745" fill="none" xmlns="http://www.w3.org/2000/svg">
<path fill-rule="evenodd" clip-rule="evenodd" d="M293.323 161.846C219.212 142.139 152.397 161.479 80.7607 191.415C68.6658 196.472 39.5885 209.881 20.2661 226.661C6.59957 238.523 -2.02386 252.201 1.91205 265.704C5.34288 277.506 16.0718 283.812 30.2505 286.256C61.038 291.567 108.367 278.802 122.474 273.699C186.012 250.693 245.155 213.932 294.852 168.07C299.391 169.342 303.972 170.764 308.585 172.342C322.476 177.116 338.534 184.218 351.535 194.266C364.173 204.028 373.948 216.583 375.633 232.598C379.158 266.014 354.368 301.48 319.639 333.725C312.075 340.758 304.034 347.618 295.684 354.28C288.823 352.488 281.315 351.273 273.315 350.57C211.247 345.102 119.996 369.358 93.7261 380.317C82.0293 385.195 60.3858 393.88 46.8971 406.5C37.2499 415.521 31.7065 426.519 35.6199 439.398C39.0991 450.874 49.5626 456.74 63.3769 458.731C93.2066 463.03 138.988 449.226 153.561 443.837C186.701 431.596 246.881 399.856 297.019 360.36C310.72 364.31 321.23 370.897 326.478 381.224C333.784 395.585 327.84 413.311 315.575 431.669C311.874 437.205 307.598 442.793 302.89 448.334C302.277 448.376 301.677 448.425 301.064 448.467C251.877 452.186 195.003 472.019 170.732 482.961C159.778 487.892 140.559 498.205 128.987 511.338C120.737 520.714 116.368 531.514 120.486 542.82C124.714 554.431 135.797 557.668 148.709 556.461C166.321 554.799 187.305 544.91 195.075 541.184C216.963 530.708 271.445 493.125 305.576 453.785C320.023 452.953 333.684 453.631 345.427 456.559C357.828 459.631 368.079 465.204 374.677 474.271C390.932 496.65 379.902 524.339 358.623 550.611C352.144 558.612 344.7 566.471 336.7 574.007C326.904 568.973 314.502 566.389 300.846 565.793C268.669 564.399 229.487 573.862 202.52 586.345C193.214 590.648 177.528 598.975 168.434 609.798C161.855 617.62 158.666 626.722 162.694 636.559C167.58 648.517 178.453 653.08 191.177 653.56C208.875 654.213 230.206 646.866 241.506 643.095C263.69 635.68 304.63 611.034 337.538 580.849C341.346 583.253 344.587 586.158 347.146 589.642C356.797 602.742 356.356 623.559 340.273 654.938C332.478 670.127 323.119 684.463 311.236 696.731C294.115 714.421 274.448 727.574 253.186 739.658C251.849 740.426 251.372 742.133 252.14 743.476C252.898 744.822 254.612 745.301 255.95 744.533C277.675 732.187 297.758 718.705 315.25 700.632C327.512 687.966 337.195 673.179 345.243 657.506C362.747 623.354 362.141 600.58 351.644 586.32C348.957 582.68 345.609 579.575 341.712 576.953C349.454 569.594 356.652 561.942 362.957 554.147C386.076 525.605 396.845 495.283 379.186 470.981C366.14 453.031 340.245 447.042 310.457 447.967C314.01 443.568 317.292 439.172 320.213 434.798C333.813 414.447 339.552 394.603 331.462 378.691C326.069 368.095 315.751 360.82 302.197 356.222C309.571 350.245 316.698 344.107 323.443 337.833C359.646 304.212 384.862 266.866 381.188 232.015C379.703 217.905 372.622 206.178 362.71 196.541C348.254 182.517 327.721 173.001 310.382 167.051C306.78 165.812 303.188 164.665 299.619 163.616C305.095 158.429 310.462 153.139 315.693 147.732C328.64 134.366 343.651 117.769 353.129 99.4137C359.598 86.8687 363.496 73.5104 362.585 59.7765C361.303 40.1034 350.157 26.9707 335.15 18.2401C320.635 9.78522 302.461 5.50494 286.525 3.28847C216.775 -6.41496 144.578 9.93406 91.3735 58.0825C90.2371 59.1108 90.1504 60.8804 91.1823 62.033C92.2103 63.175 93.979 63.2766 95.1221 62.234C147.083 15.2119 217.643 -0.643105 285.77 8.8351C301.028 10.9501 318.451 14.989 332.36 23.0786C345.765 30.8856 355.868 42.5368 357.016 60.1265C358.064 76.0854 351.998 91.4622 343.183 105.531C334.158 119.937 322.216 132.964 311.679 143.831C305.718 149.977 299.591 155.993 293.323 161.846ZM332.35 578.038C323.531 573.938 312.573 571.906 300.618 571.388C269.283 570.024 231.137 579.269 204.872 591.428C196.108 595.489 181.261 603.215 172.709 613.403C167.519 619.581 164.68 626.688 167.855 634.451C171.86 644.226 180.964 647.568 191.38 647.962C208.392 648.588 228.869 641.406 239.735 637.78C261.144 630.619 300.377 607.029 332.35 578.038ZM297.591 454.373C250.031 458.756 196.314 477.572 173.02 488.066C162.587 492.763 144.202 502.525 133.173 515.057C126.358 522.786 122.322 531.574 125.73 540.908C129.044 550.014 138.05 551.832 148.17 550.88C165.085 549.291 185.205 539.701 192.664 536.135C213.397 526.205 263.959 491.51 297.591 454.373ZM290.114 358.643C284.716 357.491 278.921 356.684 272.843 356.145C211.681 350.756 121.761 374.688 95.8823 385.482C84.6086 390.184 63.7139 398.445 50.7117 410.603C42.6933 418.086 37.7113 427.084 40.9593 437.785C42.8216 443.914 47.2936 447.9 53.3248 450.384C59.8631 453.091 68.1555 454.046 77.1494 453.951C105.017 453.658 139.467 443.077 151.622 438.582C183.652 426.752 241.23 396.485 290.114 358.643ZM288.427 166.371C216.948 148.503 152.232 167.611 82.9169 196.58C71.1333 201.513 42.7637 214.549 23.9249 230.893C17.8438 236.178 12.756 241.784 9.65512 247.604C6.78406 253.007 5.64048 258.563 7.2702 264.144C9.13203 270.534 13.7449 274.779 19.9912 277.531C26.7408 280.495 35.3159 281.742 44.6098 281.92C73.3499 282.467 108.812 272.688 120.567 268.433C182.287 246.08 239.827 210.6 288.427 166.371Z" fill="#FEA7DC"/>
</svg>
