<svg viewBox="0 0 133 145" fill="none" xmlns="http://www.w3.org/2000/svg">
<path fill-rule="evenodd" clip-rule="evenodd" d="M52.5682 29.8164C52.1771 27.4905 51.8824 25.1909 51.692 22.8911C51.4052 19.4414 51.5825 15.9653 51.4808 12.5156C51.4365 11.0521 51.2618 7.23659 51.3322 6.68778C51.9711 1.90523 55.8227 1.17339 56.9492 1.04272C57.4942 0.964317 63.0904 0.337379 64.2978 6.5573C65.779 14.1623 66.2536 21.8195 65.7295 29.32C66.9525 35.6967 69.044 42.0472 71.8056 47.7967C82.7946 70.664 103.735 72.8855 126.422 72.6764C129.911 72.6242 132.808 75.3682 132.991 78.844C133.173 82.346 130.576 85.3775 127.103 85.6912C114.421 86.9195 91.9215 97.1119 84.1427 107.722C82.5154 109.944 81.5689 115.301 80.3172 120.554C78.57 127.846 76.4916 135.059 74.1629 138.09C73.8135 138.561 69.5654 143.369 68.2981 144.075C65.2522 145.748 62.8141 144.78 61.4294 143.892C60.0447 143.003 58.4774 141.252 57.8515 138.351C57.197 135.32 57.7498 129.1 57.6481 127.767C57.2778 122.932 56.313 113.446 54.3442 105.292C53.2828 100.901 52.151 96.8504 50.2787 94.8381C43.3473 87.3899 32.2644 88.4876 22.9313 89.7159C21.8596 89.8466 20.7878 90.0035 19.7186 90.1342C15.9191 91.2579 11.8849 92.0941 7.62122 92.5906C1.18272 93.3485 0.124049 87.416 0.0666784 87.024C-0.0532775 86.1616 -0.499248 81.7189 4.35375 79.9418C4.88312 79.7588 8.78955 78.8963 10.2942 78.5566C12.3908 78.0862 14.5109 77.7204 16.6388 77.3807C38.6194 70.5336 50.5577 51.2987 52.5682 29.8164ZM60.1124 53.5725C68.4103 70.7688 81.003 79.0793 95.9297 82.8426H95.9271C86.6071 87.7297 78.1292 93.8452 73.6361 99.9868C71.9306 102.313 70.366 106.991 68.9553 112.244C68.1912 107.356 67.1586 102.156 65.7947 97.7128C64.2431 92.6428 62.1542 88.4355 59.8229 85.9266C55.322 81.0918 49.6736 78.3999 43.6002 77.0671C50.8705 70.612 56.3834 62.5627 60.1124 53.5725Z" fill="#FEA7DC"/>
</svg>
