<svg width="80" height="80" viewBox="0 0 80 80" fill="none" xmlns="http://www.w3.org/2000/svg">
<rect width="55" height="6" rx="3" transform="matrix(0.703443 -0.710752 0.703443 0.710752 19 58.0914)" fill="#FF6613"/>
<rect width="55" height="6" rx="3" transform="matrix(0.703443 0.710752 -0.703443 0.710752 23.2207 19)" fill="#FF6613"/>
<path fill-rule="evenodd" clip-rule="evenodd" d="M80 39.9999C80 62.0919 62.092 80 40.0001 80C17.9079 80 0 62.0919 0 39.9999C0 17.908 17.9079 0 40.0001 0C62.092 0 80 17.908 80 39.9999ZM72 39.9999C72 48.4869 68.6286 56.6262 62.6274 62.6274C56.6263 68.6285 48.487 71.9999 40.0001 71.9999C31.5131 71.9999 23.3738 68.6285 17.3726 62.6274C11.3714 56.6262 8 48.4869 8 39.9999C8 31.5131 11.3714 23.3738 17.3726 17.3726C23.3738 11.3714 31.5131 8 40.0001 8C48.487 8 56.6263 11.3714 62.6274 17.3726C68.6286 23.3738 72 31.5131 72 39.9999Z" fill="#FF6613"/>
</svg>
