<svg width="61" height="61" viewBox="0 0 61 61" fill="none" xmlns="http://www.w3.org/2000/svg">
<path d="M18.3327 15.6034C17.526 15.6034 16.7523 15.9215 16.1819 16.4878C15.6115 17.0541 15.291 17.8222 15.291 18.6231C15.291 19.424 15.6115 20.1921 16.1819 20.7584C16.7523 21.3247 17.526 21.6428 18.3327 21.6428H42.666C43.4727 21.6428 44.2464 21.3247 44.8168 20.7584C45.3872 20.1921 45.7077 19.424 45.7077 18.6231C45.7077 17.8222 45.3872 17.0541 44.8168 16.4878C44.2464 15.9215 43.4727 15.6034 42.666 15.6034H18.3327ZM15.291 30.7533C15.291 29.9524 15.6115 29.1844 16.1819 28.6181C16.7523 28.0518 17.526 27.7336 18.3327 27.7336H42.666C43.4727 27.7336 44.2464 28.0518 44.8168 28.6181C45.3872 29.1844 45.7077 29.9524 45.7077 30.7533C45.7077 31.5542 45.3872 32.3223 44.8168 32.8886C44.2464 33.4549 43.4727 33.7731 42.666 33.7731H18.3327C17.526 33.7731 16.7523 33.4549 16.1819 32.8886C15.6115 32.3223 15.291 31.5542 15.291 30.7533ZM18.3327 39.8638C17.526 39.8638 16.7523 40.182 16.1819 40.7483C15.6115 41.3146 15.291 42.0827 15.291 42.8836C15.291 43.6844 15.6115 44.4525 16.1819 45.0188C16.7523 45.5851 17.526 45.9033 18.3327 45.9033H42.666C43.4727 45.9033 44.2464 45.5851 44.8168 45.0188C45.3872 44.4525 45.7077 43.6844 45.7077 42.8836C45.7077 42.0827 45.3872 41.3146 44.8168 40.7483C44.2464 40.182 43.4727 39.8638 42.666 39.8638H18.3327Z" fill="#FF6613"/>
<path fill-rule="evenodd" clip-rule="evenodd" d="M60.9163 30.7533C60.9163 47.4312 47.2988 60.9506 30.4997 60.9506C13.7005 60.9506 0.0830078 47.4312 0.0830078 30.7533C0.0830078 14.0754 13.7005 0.556091 30.4997 0.556091C47.2988 0.556091 60.9163 14.0754 60.9163 30.7533ZM54.833 30.7533C54.833 37.1604 52.2693 43.305 47.7059 47.8355C43.1426 52.3659 36.9533 54.9111 30.4997 54.9111C24.0461 54.9111 17.8568 52.3659 13.2934 47.8355C8.73002 43.305 6.16634 37.1604 6.16634 30.7533C6.16634 24.3463 8.73002 18.2017 13.2934 13.6712C17.8568 9.14073 24.0461 6.59554 30.4997 6.59554C36.9533 6.59554 43.1426 9.14073 47.7059 13.6712C52.2693 18.2017 54.833 24.3463 54.833 30.7533Z" fill="#FF6613"/>
</svg>
