<svg width="42" height="42" viewBox="0 0 42 42" fill="none" xmlns="http://www.w3.org/2000/svg">
<path d="M20.9583 0.18457C9.45833 0.18457 0.125 9.5179 0.125 21.0179C0.125 32.5179 9.45833 41.8512 20.9583 41.8512C32.4583 41.8512 41.7917 32.5179 41.7917 21.0179C41.7917 9.5179 32.4583 0.18457 20.9583 0.18457ZM30.625 14.3512C30.3125 17.6429 28.9583 25.6429 28.2708 29.3304C27.9792 30.8929 27.3958 31.4137 26.8542 31.4762C25.6458 31.5804 24.7292 30.6846 23.5625 29.9137C21.7292 28.7054 20.6875 27.9554 18.9167 26.7887C16.8542 25.4346 18.1875 24.6846 19.375 23.4762C19.6875 23.1637 25.0208 18.3096 25.125 17.8721C25.1395 17.8058 25.1375 17.737 25.1194 17.6717C25.1012 17.6063 25.0674 17.5464 25.0208 17.4971C24.8958 17.3929 24.7292 17.4346 24.5833 17.4554C24.3958 17.4971 21.4792 19.4346 15.7917 23.2679C14.9583 23.8304 14.2083 24.1221 13.5417 24.1012C12.7917 24.0804 11.375 23.6846 10.3125 23.3304C9 22.9137 7.97917 22.6846 8.0625 21.9554C8.10417 21.5804 8.625 21.2054 9.60417 20.8096C15.6875 18.1637 19.7292 16.4137 21.75 15.5804C27.5417 13.1637 28.7292 12.7471 29.5208 12.7471C29.6875 12.7471 30.0833 12.7887 30.3333 12.9971C30.5417 13.1637 30.6042 13.3929 30.625 13.5596C30.6042 13.6846 30.6458 14.0596 30.625 14.3512Z" fill="black"/>
</svg>
