<svg width="42" height="42" viewBox="0 0 42 42" fill="none" xmlns="http://www.w3.org/2000/svg">
<path d="M27.2354 0.18457H14.4521C2.77708 0.18457 0 2.96165 0 14.6158V27.3992C0 39.0721 2.75625 41.8512 14.4312 41.8512H27.2146C38.8875 41.8512 41.6667 39.095 41.6667 27.42V14.6367C41.6667 2.96165 38.9104 0.18457 27.2354 0.18457ZM33.6375 29.9137H30.5979C29.4479 29.9137 29.1021 28.9825 27.0396 26.92C25.2396 25.1846 24.4792 24.9679 24.0229 24.9679C23.3937 24.9679 23.2208 25.1408 23.2208 26.0096V28.7429C23.2208 29.4825 22.9812 29.9158 21.05 29.9158C19.1757 29.7899 17.3582 29.2204 15.7471 28.2544C14.136 27.2884 12.7774 25.9535 11.7833 24.3596C9.42327 21.4221 7.78113 17.9744 6.9875 14.2908C6.9875 13.8346 7.16042 13.4221 8.02917 13.4221H11.0667C11.8479 13.4221 12.1292 13.77 12.4354 14.5721C13.9104 18.9137 16.4271 22.6887 17.4479 22.6887C17.8396 22.6887 18.0104 22.5158 18.0104 21.5387V17.0679C17.8813 15.0283 16.7979 14.8554 16.7979 14.1179C16.8118 13.9234 16.901 13.7419 17.0464 13.612C17.1919 13.4821 17.3822 13.414 17.5771 13.4221H22.3521C23.0042 13.4221 23.2208 13.7471 23.2208 14.5283V20.5617C23.2208 21.2137 23.5021 21.4304 23.6979 21.4304C24.0896 21.4304 24.3917 21.2137 25.1083 20.4971C26.6476 18.6199 27.9053 16.5285 28.8417 14.2887C28.9374 14.0197 29.1185 13.7894 29.3573 13.6329C29.5962 13.4764 29.8797 13.4024 30.1646 13.4221H33.2042C34.1146 13.4221 34.3083 13.8783 34.1146 14.5283C33.0094 17.0042 31.6418 19.3545 30.0354 21.5387C29.7083 22.0387 29.5771 22.2992 30.0354 22.8846C30.3375 23.3408 31.4021 24.2304 32.1187 25.0762C33.1602 26.1151 34.0251 27.317 34.6792 28.6346C34.9396 29.4804 34.5042 29.9137 33.6375 29.9137Z" fill="black"/>
</svg>
