<svg width="43" height="42" viewBox="0 0 43 42" fill="none" xmlns="http://www.w3.org/2000/svg">
<path d="M36.0832 6.24719C34.1732 4.31787 31.8981 2.78817 29.3908 1.7473C26.8834 0.706433 24.1938 0.175237 21.479 0.184694C10.104 0.184694 0.833171 9.45553 0.833171 20.8305C0.833171 24.4764 1.7915 28.018 3.58317 31.143L0.666504 41.8514L11.604 38.9764C14.6248 40.6222 18.0207 41.4972 21.479 41.4972C32.854 41.4972 42.1248 32.2264 42.1248 20.8514C42.1248 15.3305 39.979 10.143 36.0832 6.24719ZM21.479 37.9972C18.3957 37.9972 15.3748 37.1639 12.729 35.6014L12.104 35.2264L5.604 36.9347L7.33317 30.6014L6.9165 29.9555C5.20347 27.22 4.29388 24.0581 4.2915 20.8305C4.2915 11.3722 11.9998 3.66386 21.4582 3.66386C26.0415 3.66386 30.354 5.45553 33.5832 8.70553C35.1821 10.2971 36.4492 12.1902 37.3111 14.2752C38.1729 16.3601 38.6124 18.5953 38.604 20.8514C38.6457 30.3097 30.9373 37.9972 21.479 37.9972ZM30.8957 25.1639C30.3748 24.9139 27.8332 23.6639 27.3748 23.4764C26.8957 23.3097 26.5623 23.2264 26.2082 23.7264C25.854 24.2472 24.8748 25.4139 24.5832 25.7472C24.2915 26.1014 23.979 26.143 23.4582 25.8722C22.9373 25.6222 21.2707 25.0597 19.3123 23.3097C17.7707 21.9347 16.7498 20.2472 16.4373 19.7264C16.1457 19.2055 16.3957 18.9347 16.6665 18.6639C16.8957 18.4347 17.1873 18.0597 17.4373 17.768C17.6873 17.4764 17.7915 17.2472 17.9582 16.9139C18.1248 16.5597 18.0415 16.268 17.9165 16.018C17.7915 15.768 16.7498 13.2264 16.3332 12.1847C15.9165 11.1847 15.479 11.3097 15.1665 11.2889H14.1665C13.8123 11.2889 13.2707 11.4139 12.7915 11.9347C12.3332 12.4555 10.9998 13.7055 10.9998 16.2472C10.9998 18.7889 12.854 21.2472 13.104 21.5805C13.354 21.9347 16.7498 27.143 21.9165 29.3722C23.1457 29.9139 24.104 30.2264 24.854 30.4555C26.0832 30.8514 27.2082 30.7889 28.104 30.6639C29.104 30.518 31.1665 29.4139 31.5832 28.2055C32.0207 26.9972 32.0207 25.9764 31.8748 25.7472C31.729 25.518 31.4165 25.4139 30.8957 25.1639Z" fill="black"/>
</svg>
