<svg  viewBox="0 0 110 111" fill="none" xmlns="http://www.w3.org/2000/svg">
<path d="M46.875 36.7109H79.375M46.875 54.9922H79.375M46.875 73.0195H79.375" stroke="#FF6613" stroke-width="6" stroke-linecap="round" stroke-linejoin="round"/>
<path d="M106.75 55.5C106.75 26.9291 83.5709 3.75 55 3.75C26.4291 3.75 3.25 26.9291 3.25 55.5C3.25 84.0709 26.4291 107.25 55 107.25C83.5709 107.25 106.75 84.0709 106.75 55.5Z" stroke="#FF6613" stroke-width="6" stroke-miterlimit="10"/>
<path d="M32.6562 41.7422C35.4349 41.7422 37.6875 39.4896 37.6875 36.7109C37.6875 33.9323 35.4349 31.6797 32.6562 31.6797C29.8776 31.6797 27.625 33.9323 27.625 36.7109C27.625 39.4896 29.8776 41.7422 32.6562 41.7422Z" stroke="#FF6613" stroke-width="6" stroke-linecap="round" stroke-linejoin="round"/>
<path d="M32.6562 60.2773C35.4349 60.2773 37.6875 58.0248 37.6875 55.2461C37.6875 52.4674 35.4349 50.2148 32.6562 50.2148C29.8776 50.2148 27.625 52.4674 27.625 55.2461C27.625 58.0248 29.8776 60.2773 32.6562 60.2773Z" stroke="#FF6613" stroke-width="6" stroke-linecap="round" stroke-linejoin="round"/>
<path d="M32.6562 78.3047C35.4349 78.3047 37.6875 76.0521 37.6875 73.2734C37.6875 70.4948 35.4349 68.2422 32.6562 68.2422C29.8776 68.2422 27.625 70.4948 27.625 73.2734C27.625 76.0521 29.8776 78.3047 32.6562 78.3047Z" stroke="#FF6613" stroke-width="6" stroke-linecap="round" stroke-linejoin="round"/>
</svg>
