<svg  viewBox="0 0 101 100" fill="none" xmlns="http://www.w3.org/2000/svg">
<path d="M38.9201 51.2864C37.9785 50.3449 36.7016 49.8159 35.3701 49.8159C34.0386 49.8159 32.7616 50.3449 31.8201 51.2864C30.8785 52.2279 30.3496 53.5049 30.3496 54.8364C30.3496 56.1679 30.8785 57.4449 31.8201 58.3864L46.8201 73.3864C47.2873 73.8498 47.8414 74.2164 48.4505 74.4652C49.0597 74.7141 49.712 74.8402 50.3701 74.8364C51.0546 74.8147 51.7273 74.6526 52.3466 74.3602C52.9658 74.0677 53.5184 73.6512 53.9701 73.1364L88.9701 33.1364C89.7782 32.133 90.1679 30.8564 90.0578 29.5728C89.9477 28.2892 89.3464 27.0976 88.3792 26.2464C87.412 25.3953 86.1537 24.9504 84.8664 25.0044C83.5792 25.0584 82.3625 25.6072 81.4701 26.5364L50.3701 62.5364L38.9201 51.2864Z" fill="#FF6613"/>
<path d="M95.3702 45C94.0441 45 92.7723 45.5268 91.8346 46.4645C90.8969 47.4021 90.3702 48.6739 90.3702 50C90.3702 60.6087 86.1559 70.7828 78.6544 78.2843C71.153 85.7857 60.9788 90 50.3702 90C42.4706 89.9964 34.749 87.6538 28.179 83.2677C21.609 78.8816 16.4848 72.6483 13.4526 65.3539C10.4203 58.0594 9.61588 50.0305 11.1406 42.2795C12.6653 34.5284 16.451 27.4024 22.0202 21.8C25.7237 18.0469 30.1386 15.0702 35.0064 13.0441C39.8743 11.0179 45.0975 9.98305 50.3702 10C53.5674 10.02 56.7529 10.3889 59.8702 11.1C60.5225 11.3018 61.2092 11.3678 61.8881 11.294C62.5669 11.2202 63.2234 11.0081 63.8171 10.6709C64.4109 10.3336 64.9292 9.87836 65.3403 9.33311C65.7513 8.78786 66.0463 8.1642 66.2071 7.50057C66.3679 6.83694 66.391 6.14741 66.2751 5.4745C66.1592 4.80158 65.9067 4.15954 65.5331 3.58796C65.1596 3.01637 64.6729 2.52735 64.1031 2.15106C63.5333 1.77476 62.8925 1.51915 62.2202 1.4C58.3359 0.486214 54.3604 0.0165371 50.3702 0C40.4918 0.0513177 30.8501 3.0276 22.6616 8.55326C14.4732 14.0789 8.10501 21.9063 4.36075 31.0477C0.616495 40.189 -0.336048 50.2346 1.62333 59.9168C3.58271 69.599 8.36621 78.4838 15.3702 85.45C24.6536 94.7377 37.2384 99.9694 50.3702 100C63.631 100 76.3487 94.7322 85.7255 85.3553C95.1023 75.9785 100.37 63.2608 100.37 50C100.37 48.6739 99.8434 47.4021 98.9057 46.4645C97.968 45.5268 96.6962 45 95.3702 45Z" fill="#FF6613"/>
</svg>
